<?xml version="1.0" standalone="no"?>
<!DOCTYPE svg PUBLIC "-//W3C//DTD SVG 1.1//EN" "http://www.w3.org/Graphics/SVG/1.1/DTD/svg11.dtd" >
<!--
2013-9-30: Created.
-->
<svg>
<metadata>
Created by iconfont
</metadata>
<defs>

<font id="iconfont" horiz-adv-x="1024" >
  <font-face
    font-family="iconfont"
    font-weight="500"
    font-stretch="normal"
    units-per-em="1024"
    ascent="896"
    descent="-128"
  />
    <missing-glyph />
    
    <glyph glyph-name="biaoqiantag33" unicode="&#58967;" d="M677.07904 298.67008M917.4528 241.38752 469.94432 688.896c-4.88448 4.87424-11.48928 7.61856-18.37056 7.61856L287.72352 696.51456c-11.79648 15.0016-27.66848 27.8528-46.31552 37.10976-44.91264 22.31296-95.51872 18.6368-123.0848-8.9088-5.08928-5.09952-9.27744-10.9056-12.45184-17.28512-10.16832-20.48-9.12384-44.81024 2.93888-68.49536 11.63264-22.84544 32.256-42.48576 58.10176-55.30624 11.59168-5.75488 23.56224-9.74848 35.40992-12.09344l0-124.25216c0.01024-6.88128 2.74432-13.50656 7.61856-18.37056l447.50848-447.50848c10.14784-10.15808 26.60352-10.15808 36.75136 0l223.25248 223.25248C927.60064 214.77376 927.60064 231.22944 917.4528 241.38752zM209.94048 688.896c-4.87424-4.87424-7.60832-11.48928-7.60832-18.37056l0-81.33632c-9.25696 2.12992-18.59584 5.40672-27.70944 9.94304-22.528 11.18208-40.41728 28.09856-50.37056 47.64672-9.51296 18.688-10.52672 37.48864-2.85696 52.93056 2.33472 4.68992 5.40672 8.98048 9.17504 12.73856 22.3744 22.3744 64.768 24.68864 103.1168 5.64224 11.66336-5.79584 22.04672-13.14816 30.78144-21.58592l-36.15744 0C221.41952 696.51456 214.82496 693.77024 209.94048 688.896zM267.1104 631.71584c6.9632 6.9632 15.59552 11.2128 24.6272 12.8 0.79872-9.60512-0.73728-18.78016-4.82304-27.00288-2.32448-4.70016-5.41696-8.99072-9.18528-12.7488-6.33856-6.3488-14.336-11.01824-23.36768-14.11072C251.70944 605.10208 255.93856 620.55424 267.1104 631.71584zM332.45184 566.38464c-18.05312-18.04288-47.29856-18.04288-65.34144 0-2.52928 2.53952-4.67968 5.30432-6.49216 8.22272 11.264 3.91168 21.31968 9.86112 29.36832 17.90976 5.08928 5.09952 9.27744 10.9056 12.45184 17.28512 5.29408 10.65984 7.4752 22.36416 6.71744 34.46784 8.52992-1.76128 16.67072-5.92896 23.28576-12.55424C350.49472 613.6832 350.49472 584.42752 332.45184 566.38464z"  horiz-adv-x="1024" />

    
    <glyph glyph-name="shalou" unicode="&#58930;" d="M524.8 147.2 320 0c-12.8-6.4 12.8-6.4 12.8-6.4l377.6 0c19.2 0 0 25.6 0 25.6-57.6 83.2-108.8 115.2-140.8 134.4C537.6 172.8 524.8 147.2 524.8 147.2zM684.8 716.8 364.8 716.8c0 0-25.6-83.2 96-166.4 0 0 51.2-32 64-115.2l0-6.4c0 0 0 0 0 0 0 0 0 0 0 0L524.8 435.2c6.4 83.2 64 115.2 64 115.2C710.4 633.6 684.8 716.8 684.8 716.8zM659.2 499.2c134.4 102.4 153.6 243.2 153.6 307.2l32 0c25.6 0 44.8 19.2 44.8 44.8l0 0c0 25.6-19.2 44.8-44.8 44.8L217.6 896C192 896 172.8 876.8 172.8 851.2l0 0c0-25.6 19.2-44.8 44.8-44.8l32 0c0-64 19.2-204.8 153.6-307.2C448 467.2 473.6 428.8 473.6 384c0-70.4-64-121.6-70.4-121.6-12.8-6.4-153.6-108.8-153.6-300.8L217.6-38.4c-25.6 0-44.8-19.2-44.8-44.8l0 0C172.8-108.8 192-128 217.6-128l627.2 0c25.6 0 44.8 19.2 44.8 44.8l0 0c0 25.6-19.2 44.8-44.8 44.8l-32 0c0 192-147.2 294.4-153.6 300.8C652.8 268.8 588.8 320 588.8 384 588.8 428.8 608 467.2 659.2 499.2zM556.8 384c0-83.2 76.8-140.8 83.2-147.2l0 0c0 0 140.8-96 140.8-275.2l-512 0c0 179.2 140.8 275.2 140.8 275.2l0 0c6.4 0 83.2 64 83.2 147.2 0 51.2-25.6 96-83.2 134.4C294.4 614.4 275.2 748.8 275.2 806.4l505.6 0c0-57.6-19.2-185.6-140.8-281.6C588.8 480 556.8 435.2 556.8 384z"  horiz-adv-x="1024" />

    
    <glyph glyph-name="stop" unicode="&#58960;" d="M209.417 834h150.008v-900h-150.008v900zM659.417 834h149.985v-900h-149.985v900z"  horiz-adv-x="1024" />

    
    <glyph glyph-name="biaoqingfenleimoren" unicode="&#58980;" d="M774.5 585.8c-3.3 1.2-81.4 29.4-81.4 86.6 0 21.6 7.2 38 16.3 50-42 4.1-115.5 7.9-206.7-1.3-196.9-19.9-229.3-107.7-232.7-119.2l0-1.7-34.8 0 0.3 7c0.9 5.1 25.7 124.4 263.6 148.5 150 15.1 251.1-3.3 255.4-4.1l58.3-10.9L758 718.4c-1.1-0.5-30.1-13.2-30.1-46 0-27.1 43.1-48.5 58.2-53.8l11.6-4.1 0-14.2-18.1 0L774.5 585.8zM392.4 465.2c-19.2 0-34.8-38.9-34.8-86.9 0-48 15.6-86.9 34.8-86.9s34.8 38.9 34.8 86.9C427.1 426.3 411.5 465.2 392.4 465.2L392.4 465.2zM635.6 465.2c-19.2 0-34.8-38.9-34.8-86.9 0-48 15.6-86.9 34.8-86.9 19.2 0 34.8 38.9 34.8 86.9C670.4 426.3 654.8 465.2 635.6 465.2L635.6 465.2zM152.4 431.3c0 0-9.6-27.4-57.3-56.9 0 0 28.6-6.1 57.3-58.3 0 0 9.7 32.6 57.7 58.3C210.1 374.4 180.8 381.4 152.4 431.3zM873 488c-31.2 0-59.5-12.5-80.2-32.8l0 56.6-1.1 40.3L627.9 552.1c-9.1 0-16.1 12.3-16.1 21.5l0 79.3L525.5 598c-2.7-1.7-5.8-2.6-8.9-2.6-3.1 0-6.3 0.9-9 2.7l-83.7 54.4 0-78.9c0-9.2-7-21.5-16.2-21.5L236.3 552.1l-1.1-40.3 0-56.6c-20.7 20.3-49 32.8-80.2 32.8-63.5 0-115-51.7-115-115.5 0-63.8 51.5-115.5 115-115.5 33.8 0 64.1 14.7 85.2 38.1C265.8 150.1 394.2 83 514 83c119.8 0 248.2 67 273.9 212.1 21-23.3 51.4-38.1 85.2-38.1 63.5 0 115 51.7 115 115.5C988 436.3 936.5 488 873 488zM155 291.8c-44.2 0-80.2 36.2-80.2 80.7 0 44.5 36 80.7 80.2 80.7 44.2 0 80.2-36.2 80.2-80.7C235.2 328 199.2 291.8 155 291.8zM758 349.2c0-159-126.5-231.4-244.1-231.4-117.5 0-244 72.4-244 231.4L269.9 511.3l0.2 6 137.6 0c30.5 0 50.9 29.1 50.9 56.3l0 14.8 30-19.5c8.3-5.4 18-8.3 27.9-8.3 9.8 0 19.3 2.8 27.5 8l32.9 20.9 0-16c0-27.2 20.5-56.3 50.9-56.3l130 0 0.2-6L758 349.2zM873 291.8c-44.2 0-80.2 36.2-80.2 80.7 0 44.5 36 80.7 80.2 80.7 44.2 0 80.2-36.2 80.2-80.7C953.2 328 917.3 291.8 873 291.8zM870.4 431.3c0 0-9.6-27.4-57.2-56.9 0 0 28.6-6.1 57.2-58.3 0 0 9.8 32.6 57.7 58.3C928.1 374.4 898.9 381.4 870.4 431.3L870.4 431.3z"  horiz-adv-x="1024" />

    
    <glyph glyph-name="lianjie" unicode="&#58969;" d="M770.444167 219.957877c-12.755512 4.833075-29.79356 3.89368-43.162032-0.201591-10.426467-3.194762-18.521842-14.845103-27.00812-23.378453-32.869618-33.050744-64.582901-67.301825-98.377588-99.366102-66.884316-63.455217-146.885372-82.995249-234.733139-58.744939-178.375573 49.244564-239.021815 269.195022-112.842021 407.566486 44.168965 48.434106 91.899036 93.625354 138.127917 140.172483 38.926568 39.195697 76.382645 80.059384 117.500111 116.815519 46.993291 42.006719 102.598726 47.119157 159.564136 22.355147 54.978149-23.90034 89.150436-81.746816 86.557378-141.610228-1.716084-39.613206-17.001209-73.819263-44.659129-101.96223-66.552765-67.723428-133.536342-135.026276-200.397123-202.446805-4.854565-4.89345-9.66615-10.036587-15.285125-13.929244-22.686698-15.7231-47.721885-14.890128-66.721611 1.682315-19.647479 17.137309-24.056905 47.155996-8.463766 70.670549 7.522324 11.342326 18.238386 20.640086 27.910677 30.466895 36.32737 36.908608 73.595158 72.932056 108.954481 110.742197 20.335141 21.745257 19.86749 48.123021 2.562359 64.62895-16.987906 16.204054-39.97034 17.528212-60.246129-2.200108-49.465598-48.13223-99.720166-95.915513-144.565537-148.205437-48.121997-56.108902-40.022529-137.213082 12.516058-187.54849 53.051263-50.828642 132.703371-54.700833 187.293687-2.5071 79.812767 76.308967 159.152766 153.676032 232.256738 236.288564 82.663698 93.414553 70.417793 237.774405-20.013823 323.316663-91.438549 86.49291-230.549863 86.895069-322.82343-2.477424-85.547375-82.860173-169.046091-167.909198-251.502058-253.858732-61.115939-63.706951-90.974991-141.374868-90.193185-267.86984 0.13303-214.446094 263.751033-375.566678 484.495576-257.977539 79.574337 42.388413 131.634016 115.712395 194.09458 177.24789 4.490268 4.424776 6.808056 12.06785 8.026814 18.608823C792.770661 194.806034 788.462542 213.130378 770.444167 219.957877zM875.576599 355.938897c-26.27134-1.769296-59.405995-36.730553-59.505255-62.785975-0.091074-23.986297 18.956747-43.364647 42.091654-42.825364 26.293853 0.61296 64.472384 40.58637 63.124689 66.093301C920.085302 339.210911 898.91719 357.509672 875.576599 355.938897z"  horiz-adv-x="1024" />

    
    <glyph glyph-name="liaotianjilu" unicode="&#58979;" d="M313.214 488.583c1.31 121.283 79.049 199.663 199.768 200.703 100.996 0.87 202.037 1.715 302.974-0.605 36.165-0.835 43.174 12.723 38.56 44.484C842.102 818.898 769.402 882.634 676.66 883.294c-164.128 1.18-328.25 1.135-492.378 0.09C76.552 882.689 4.077 811.714 1.372 704.588c-1.87-73.9-1.795-147.915 0.02-221.815 2.215-90.483 52.763-153.664 140.956-173.411 27.596-6.174 32.001-13.073 21.132-38.045-19.812-45.514-36.86-92.237-55.057-138.451 3.674-2.91 7.364-5.824 11.033-8.724 51.698 32.141 102.526 65.806 155.464 95.777 28.486 16.123 40.25 35.115 38.92 68.521C311.184 355.051 312.499 421.862 313.214 488.583L313.214 488.583zM1009.954 651.981c-167.722 3.545-335.614 3.375-503.336 0.055-91.637-1.81-152.019-63.436-155.649-154.699-3.575-90.073-3.77-180.52 0.095-270.563 4.119-95.767 68.981-153.429 166.647-154.909 54.113-0.81 108.35-2.185 162.353 0.51 41.644 2.085 76.255-9.014 111.065-31.836 79.964-52.428 162.228-101.321 256.515-159.653-17.068 43.344-28.201 71.405-39.16 99.531-11.033 28.291-21.897 56.652-33.685 87.203 10.174 1.71 16.968 3.435 23.837 3.934 112.21 8.119 166.427 64.716 167.537 176.736 0.78 79.384 1.485 158.798-0.23 238.147C1163.808 585.085 1106.086 649.951 1009.954 651.981L1009.954 651.981z"  horiz-adv-x="1168" />

    
    <glyph glyph-name="41shuoshuo" unicode="&#58968;" d="M825.6 44.8l-112 70.4h-147.2c-44.8 0-80 35.2-80 80 0 9.6 6.4 16 16 16 9.6 0 16-6.4 16-16 0-25.6 22.4-48 48-48h156.8l99.2-60.8 57.6 60.8h73.6c25.6 0 48 22.4 48 48l-0 220.8c0 25.6-22.4 48-48 48h-140.8c-9.6 0-16 6.4-16 16s6.4 16 16 16h140.8c41.6 0 76.8-35.2 76.8-80v-224c0-44.8-35.2-80-80-80h-57.6l-67.2-67.2zM870.4 272c-25.6 0-48 22.4-48 48s22.4 48 48 48 48-22.4 48-48-22.4-48-48-48zM870.4 336c-9.6 0-16-6.4-16-16s6.4-16 16-16 16 6.4 16 16-6.4 16-16 16zM688 716.8c35.2 0 67.2-28.8 67.2-67.2v-342.4c0-35.2-28.8-67.2-67.2-67.2h-243.2l-6.4-6.4-140.8-86.4-76.8 80-9.6 9.6h-115.2c-35.2 0-67.2 28.8-67.2 67.2l0 348.8c0 35.2 28.8 67.2 67.2 67.2h592M688 748.8h-588.8c-54.4 0-99.2-44.8-99.2-99.2v-342.4c0-54.4 44.8-99.2 99.2-99.2h102.4l92.8-99.2 160 99.2h233.6c54.4 0 99.2 44.8 99.2 99.2v345.6c0 54.4-44.8 96-99.2 96v0zM540.8 521.6c9.6 0 16-6.4 16-16s-6.4-19.2-16-19.2-16 6.4-16 16 6.4 19.2 16 19.2M540.8 553.6c-25.6 0-48-22.4-48-48s22.4-48 48-48 48 22.4 48 48-22.4 48-48 48v0zM393.6 521.6c9.6 0 16-6.4 16-16s-6.4-16-16-16-16 6.4-16 16 6.4 16 16 16M393.6 553.6c-25.6 0-48-22.4-48-48s22.4-48 48-48 48 22.4 48 48-22.4 48-48 48v0zM246.4 521.6c9.6 0 16-6.4 16-16s-6.4-16-16-16-16 6.4-16 16 6.4 16 16 16M246.4 553.6c-25.6 0-48-22.4-48-48s22.4-48 48-48c25.6 0 48 22.4 48 48s-22.4 48-48 48v0z"  horiz-adv-x="1031" />

    
    <glyph glyph-name="xia" unicode="&#58959;" d="M0 896 1316.571429 896 658.285714-128 0 896Z"  horiz-adv-x="1317" />

    
    <glyph glyph-name="hangyezixun" unicode="&#58888;" d="M565.76 832L243.2 608H135.68C96.064 608 64 574.592 64 533.312v-298.624c0-41.28 32.064-74.688 71.68-74.688H243.2L565.76-64c39.616 0 71.68 33.408 71.68 74.688V757.312C637.44 798.592 605.376 832 565.76 832zM243.2 272c0-20.608-16-37.312-35.84-37.312h-35.84a36.544 36.544 0 0 0-35.84 37.312v224c0 20.608 16 37.312 35.84 37.312h35.84c19.776 0 35.84-16.704 35.84-37.312v-224z m322.56-261.312l-250.88 163.328V593.984l250.88 163.328v-746.624z m179.264 630.848v-74.624c81.728-17.28 143.296-92.608 143.296-182.912s-61.568-165.632-143.296-182.912v-74.624C866.368 144.704 960 252.416 960 384s-93.632 239.296-214.976 257.536z"  horiz-adv-x="1024" />

    
    <glyph glyph-name="html5" unicode="&#59057;" d="M755.428571 554.857143l9.142858 100H259.428571l26.857143-305.142857h349.714286l-12.571429-130.285715-112.571428-30.285714-112 30.285714-7.428572 80H291.428571l12.571429-158.857142 206.857143-57.142858h2.285714v0.571429l205.142857 56.571429 28.571429 310.857142H378.857143l-8.571429 103.428572h385.142857zM109.714286 822.857143h804.571428l-73.142857-821.714286-330.285714-92.571428-328 92.571428z"  horiz-adv-x="1024" />

    
    <glyph glyph-name="wo" unicode="&#59118;" d="M232.4224 576.06656c0 150.21056 124.33408 271.92832 277.67808 271.92832 153.33888 0 277.67808-121.71776 277.67808-271.92832s-124.3392-271.92832-277.67808-271.92832-277.67808 121.71776-277.67808 271.92832m-48.9728 0c0-129.00864 77.93152-240.25088 190.25408-290.87744-189.12768-53.59616-331.12576-215.71584-351.14496-413.05088h49.18272c24.43776 215.97184 211.3536 383.99488 438.36416 383.99488 226.95936 0 413.93152-168.02304 438.30784-383.99488h49.23392c-20.0192 197.33504-162.01728 359.45472-351.14496 413.05088 112.3328 50.62656 190.25408 161.8688 190.25408 290.87744C836.7616 752.768 690.49856 896 510.1056 896c-180.44928 0-326.656-143.232-326.656-319.93344"  horiz-adv-x="1024" />

    
    <glyph glyph-name="github" unicode="&#59025;" d="M855.557 679.145c35.621 66.153-5.089 152.661-5.089 152.661-91.597 0-157.75-61.064-157.75-61.064-35.621 20.355-152.661 20.355-152.661 20.355s-117.04 0-152.661-20.355c0 0-66.153 61.064-157.75 61.064 0 0-40.71-86.508-5.089-152.661 0 0-81.419-76.331-50.887-239.169 28.691-153.018 162.838-193.371 249.346-193.371 0 0-35.621-30.532-30.532-81.419 0 0-50.887-30.532-101.774-10.177s-76.331 71.242-76.331 71.242-50.887 66.153-101.774 40.71c0 0-15.266-15.266 40.71-40.71 0 0 40.71-61.064 55.976-96.685 15.266-35.621 96.685-66.153 178.105-45.798v-117.04s0-10.177-20.355-15.266-20.355-15.266-10.177-15.266H723.25c10.177 0 10.177 10.177-10.177 15.266-20.355 5.089-20.355 15.266-20.355 15.266v117.04s0.447 61.03 0 81.419c-1.119 51.128-35.621 81.419-35.621 81.419 86.508 0 220.655 40.353 249.346 193.371 30.533 162.837-50.886 239.168-50.886 239.168z"  horiz-adv-x="1024" />

    
    <glyph glyph-name="huojian" unicode="&#58919;" d="M896.816 469.736L725.48 590.656C701.432 701.216 637.992 799.496 533.376 888.6A30.92 30.92 0 0 1 513.296 896h-6.232a30.96 30.96 0 0 1-20.088-7.4C384.128 801.056 321.384 704.544 296.432 596.312L127.168 476.816a30.96 30.96 0 0 1-13.112-25.472l0.728-137.392a30.88 30.88 0 0 1 12.888-24.984 30.76 30.76 0 0 1 27.792-4.296L300.8 332.64c10.92-45.008 27.272-85.904 50.28-126.2a30.992 30.992 0 0 1 26.904-15.664h6.712c61.488 0 240.232-1.032 256.504-1.208h0.272a31.008 31.008 0 0 1 26.856 15.544c22.504 39.144 38.84 78.712 49.944 122.088l150.216-49.608a31.128 31.128 0 0 1 27.8 4.24 31.008 31.008 0 0 1 12.888 24.984l0.752 137.456a30.88 30.88 0 0 1-13.112 25.464zM510.176 826.576c43.456-39.232 77.912-79.672 103.864-122.12H406.256c25.968 42.44 60.448 82.88 103.92 122.12zM288.448 393.76l-111.944-36.904-0.408 78.664 109.016 76.976c-0.696-13.416-1.576-26.776-1.224-40.536 0.696-27.784 2.584-53.6 5.688-78.04-0.376-0.128-0.752-0.04-1.128-0.16z m334.784-142.128c-47.496 0.304-168.536 1.032-226.856 1.088-33.032 63.584-48.296 130.792-50.56 220.816-1.528 60.592 8.68 116.352 29.904 168.976h268.904c21.208-52.616 31.432-108.384 29.952-168.96-2.312-90.384-17.824-157.912-51.344-221.92z m224.248 98.136l-111.92 36.952c-1.936 0.664-3.84 0.48-5.784 0.72 3.664 26.376 5.96 54.272 6.744 84.552 0.304 12.176-0.6 23.96-1.12 35.856l112.504-79.424-0.424-78.656zM661.712 126.944c-4.536 12.216-16.176 21.352-29.28 20.144l-237.16-1.992a31.064 31.064 0 0 1-28.576-19.664l-54.936-139.872a30.904 30.904 0 0 1 3.688-29.4c6.168-8.528 16.152-13.616 26.76-12.832l88.704 4.656 59.168-65.704A31.008 31.008 0 0 1 513.096-128a30.976 30.976 0 0 1 23.024 10.28l59.088 65.704 88.824-4.656c9.976-0.792 20.384 4.232 26.584 12.584a30.992 30.992 0 0 1 4.024 29.16l-52.928 141.872z m-77.984-116.344a31.224 31.224 0 0 1-24.656-10.224l-45.976-51.064-46.024 51.064a31.04 31.04 0 0 1-23.016 10.288c-0.528 0-1.072 0-1.624-0.064l-55.416-2.904 29.688 75.624 194.552 1.632 28.848-77.312-56.376 2.96z"  horiz-adv-x="1024" />

    
    <glyph glyph-name="xiezuo" unicode="&#58887;" d="M661.6 544.6c-40.6 0-85.2 5.5-131.2 18-55.4 15-112.1 39.3-164.2 69-0.8 0.3-1.5 0.8-2.1 1.2-81.1 46.5-150.8 105.9-186.1 163-4.3 7-2.2 16.2 4.8 20.5 7 4.4 16.2 2.2 20.5-4.8 30.7-49.7 89.6-101.3 159.3-143.6 7.2 30.3 21.5 90.4 32 138.9 1.2 5.3 5.1 9.6 10.3 11.1 68.4 20.3 141.9 16.9 238.5-10.8C778.1 768.5 861.7 676.9 846.6 621c-12-44-86.5-76.4-185-76.4z m-272 107.8c47.4-26 98.5-47.4 148.6-61 143.2-38.8 268.3-4.1 279.6 37.4 8.4 31-56.2 113.4-182.6 149.7-86.7 24.9-153 29.1-213.3 13.2-11.5-52.3-26.4-114.6-32.3-139.3zM278.7-33c-1.5 0-3 0.2-4.5 0.7-5.6 1.8-9.7 6.7-10.4 12.6-0.3 3-33.4 302.9-88.1 821.9-0.9 8.2 5.1 15.5 13.3 16.4 8.2 0.8 15.5-5.1 16.4-13.3 44.2-419.6 74.3-696 84.4-788 211.6 241.8 510.3 584.6 522.1 601.6 4 7.2 12.8 9.5 20 5.5 7.2-3.9 9.7-13.4 5.7-20.7-7.8-14.4-421.2-487.1-547.7-631.6-2.8-3.3-7-5.1-11.2-5.1zM436.9-63c-53.2 0-106.3 8.9-156.6 26.7l-19 6.7c-11.7 4.1-17.8 16.9-13.6 28.6 4.1 11.7 16.9 17.8 28.6 13.6l19-6.7c85.9-30.4 181.1-32.2 268.1-5l38.5 12c11.8 3.7 24.3-2.9 28-14.7 3.7-11.8-2.9-24.3-14.7-28l-38.5-12c-45.3-14.1-92.5-21.2-139.8-21.2zM270.1-31l-31.4 288.8s66.1-62.9 120.2-70.6c54.1-7.6 108.3-5.6 108.3-5.6L270.1-31zM312.2 320c-3.2 0-6.5 1.1-9.1 3.1L228 381c-3.2 2.4-5.2 6-5.7 10l-23.8 196.2c-0.7 5.7 2 11.3 6.8 14.4 4.9 3.1 11.1 3.1 16 0l133.8-84.8c5.2-3.3 7.9-9.5 6.6-15.6l-35-169.3c-1-5-4.6-9.2-9.4-11-1.6-0.6-3.4-0.9-5.1-0.9z m-61.1 80.8l51.2-39.5 28.1 135.8-98.5 62.4 19.2-158.7zM645.4 385.3c-0.3 0-0.7 0-1 0.1-0.6 0.1-58.7 8.2-123.1 26.1-64.9 18-137.8 60.2-140.9 62-3.6 2.1-4.8 6.6-2.7 10.2 2.1 3.6 6.6 4.8 10.2 2.7 0.7-0.4 74.4-43 137.4-60.5 63.5-17.6 120.6-25.6 121.2-25.7 4.1-0.6 6.9-4.3 6.4-8.4-0.7-3.8-3.8-6.5-7.5-6.5zM412.3 352.1c-1 0-2.1 0.2-3.1 0.7-23.8 11-39.7 19.9-40.4 20.3-3.6 2-4.9 6.6-2.9 10.2 2 3.6 6.5 4.9 10.1 2.9 0.2-0.1 16.2-9 39.4-19.8 3.7-1.7 5.4-6.2 3.6-9.9-1.2-2.8-3.9-4.4-6.7-4.4zM539.6 318.6c-4 0-7.3 3.2-7.4 7.2-0.1 4.1 3.1 7.6 7.2 7.7 24.5 0.8 42.6 5.2 42.8 5.2 4 1 8-1.5 9-5.5s-1.5-8-5.5-9c-0.8-0.2-19.7-4.8-45.9-5.7 0 0.1-0.1 0.1-0.2 0.1z"  horiz-adv-x="1024" />

    
    <glyph glyph-name="huojian1" unicode="&#58900;" d="M662.72 433.216l136.448-169.408v-173.248l-136.448 48.32zM342.72 438.656L206.272 269.184v-173.248l136.448 48.384zM570.688 477.312l-142.848-1.152a266.496 266.496 0 0 0-20.288 0.576l3.712-448.64c0.256-28.928 94.272-130.048 94.272-130.048s93.888 102.656 93.632 131.584l-3.712 448.96a344.64 344.64 0 0 0-24.768-1.28zM531.456 296.704l-63.04-0.576c-3.008 0-5.952 0.064-8.96 0.384l2.176-257.792c0.128-16.64 41.728-74.816 41.728-74.816s41.344 58.944 41.28 75.52l-2.176 257.92c-3.648-0.384-7.296-0.64-11.008-0.64zM554.304 802.432a324.352 324.352 0 0 1-110.592-1.728L342.72 655.232v-584.512c13.824 0.96 27.968 1.536 42.368 1.536h245.248c11.84 0 23.36-0.384 34.816-1.024V642.688L554.304 802.432zM541.44 801.856L500.416 860.992l-45.696-59.136v-29.504h89.024v29.504zM459.456 607.36h88.96v-88.896h-88.96zM459.456 428.544h88.96v-88.96h-88.96zM459.456 261.824h88.96v-88.896h-88.96zM364.928 107.264h277.76v-44.352h-277.76z"  horiz-adv-x="1024" />

    
    <glyph glyph-name="tubiao-" unicode="&#58961;" d="M274.204 587.662h475.591c18.851 0 34.133 15.282 34.133 34.133s-15.282 34.133-34.133 34.133h-475.591c-18.851 0-34.133-15.282-34.133-34.133s15.282-34.133 34.133-34.133zM274.204 349.867h318.578c18.851 0 34.133 15.282 34.133 34.133 0 18.851-15.282 34.133-34.133 34.133h-318.578c-18.851-0-34.133-15.282-34.133-34.133 0-18.851 15.282-34.133 34.133-34.133zM749.796 180.338h-475.591c-18.851-0-34.133-15.282-34.133-34.133s15.282-34.133 34.133-34.133h475.591c18.851 0 34.133 15.282 34.133 34.133s-15.282 34.133-34.133 34.133z"  horiz-adv-x="1024" />

    
    <glyph glyph-name="shouye" unicode="&#58901;" d="M1055.588689 285.285347c-15.794344 0-31.588689 5.264781-44.750643 15.794345l-436.976863 368.534704h-5.264782L128.987147 303.712082c-28.956298-23.691517-71.07455-18.426735-94.766067 7.897172l-15.794345 21.059126c-23.691517 28.956298-21.059126 71.07455 7.897172 97.398458l508.051414 421.182519c23.691517 18.426735 57.912596 18.426735 78.971723 0l152.678663-128.987146V830.190231c0 36.85347 28.956298 65.809769 65.809769 65.809769h94.766066c36.85347 0 65.809769-28.956298 65.809769-65.809769v-300.092545l126.354756-102.663239c28.956298-26.323907 31.588689-68.442159 7.897172-97.398457l-15.794344-21.059126c-18.426735-13.161954-36.85347-23.691517-55.280206-23.691517zM571.228792 735.424165c15.794344 0 31.588689-5.264781 42.118252-15.794345l436.976863-368.534704h5.264782l18.426735 21.059126v5.264781l-123.722365 100.030848c-15.794344 13.161954-23.691517 31.588689-23.691517 50.015425V830.190231h-94.766066V632.760925l-34.22108-18.426735-18.426735 13.161954-205.326478 171.105398L529.11054 764.380463 65.809769 380.051414c-2.632391 0-2.632391-2.632391 0-5.264782l15.794344-21.059126h5.264782L529.11054 719.62982c10.529563 10.529563 26.323907 15.794344 42.118252 15.794345zM923.969152-128h-229.017995c-39.485861 0-68.442159 31.588689-68.44216 68.442159v200.061697h-110.560411v-200.061697c0-39.485861-31.588689-68.442159-68.442159-68.442159H215.856041c-39.485861 0-71.07455 31.588689-71.07455 71.07455V251.064267c0 23.691517 10.529563 44.750643 26.323907 57.912597l347.475579 292.195373c28.956298 23.691517 71.07455 23.691517 100.030848 0l347.475579-292.195373c15.794344-13.161954 26.323907-36.85347 26.323907-57.912597v-305.357326c2.632391-42.118252-28.956298-73.706941-68.442159-73.706941zM510.683805 208.946015h118.457583c34.22108 0 60.544987-26.323907 60.544987-60.544987v-205.326478c0-2.632391 2.632391-5.264781 5.264782-5.264781h229.017995c2.632391 0 5.264781 2.632391 5.264781 5.264781V248.431877c0 2.632391-2.632391 7.897172-2.632391 7.897172L579.125964 551.156812c-5.264781 5.264781-13.161954 5.264781-15.794344 0L213.22365 258.96144c-2.632391-2.632391-2.632391-5.264781-2.63239-7.897173v-305.357326c0-2.632391 2.632391-5.264781 5.264781-5.264782h229.017995c2.632391 0 5.264781 2.632391 5.264781 5.264782v205.326478c0 28.956298 26.323907 57.912596 60.544988 57.912596z"  horiz-adv-x="1142" />

    
    <glyph glyph-name="shandian" unicode="&#58893;" d="M705.946724 425.225666h187.67717l-448.340918-538.702952 149.446973 379.32793H427.907521L594.729949 713.695432h323.223412zM1949.80296 887.469137zM1946.907354 887.469137a2.894693 2.894693 0 1 1 5.790299-0.000912 2.894693 2.894693 0 0 1-5.790299 0.000912zM1946.325497 887.469137a3.47655 3.47655 0 1 1 6.953101 0 3.47655 3.47655 0 0 1-6.953101 0zM1949.80296 887.469137l1.046065 8.530863zM1942.853507 887.469137a6.949452 6.949452 0 0 1 6.950365-6.950365 6.949452 6.949452 0 0 1 6.950364 6.950365 6.949452 6.949452 0 0 1-6.950364 6.950364c-3.839527 0-6.950364-3.11175-6.950365-6.950364zM1946.325497 887.469137a3.47655 3.47655 0 1 1 6.953101 0 3.47655 3.47655 0 0 1-6.953101 0zM1946.907354 887.469137a2.894693 2.894693 0 1 1 5.790299-0.000912 2.894693 2.894693 0 0 1-5.790299 0.000912zM1949.80296 887.469137l1.046065 8.530863z"  horiz-adv-x="2145" />

    
    <glyph glyph-name="Bootstrap" unicode="&#59877;" d="M1024 42.666667c0-93.866667-76.8-170.666667-170.666667-170.666667H170.666667C76.8-128 0-51.2 0 42.666667V725.333333C0 819.2 76.8 896 170.666667 896h682.666666c93.866667 0 170.666667-76.8 170.666667-170.666667v-682.666666zM278.4 673.066667h290.133333c53.333333 0 97.066667-11.733333 129.066667-37.333334s48-61.866667 48-110.933333c0-29.866667-7.466667-55.466667-22.4-76.8-14.933333-21.333333-36.266667-38.4-62.933333-50.133333v-2.133334c37.333333-7.466667 65.066667-25.6 83.2-52.266666 19.2-26.666667 28.8-60.8 28.8-101.333334 0-23.466667-4.266667-45.866667-12.8-65.066666-8.533333-20.266667-21.333333-38.4-39.466667-52.266667-18.133333-14.933333-40.533333-26.666667-68.266667-35.2s-60.8-12.8-99.2-12.8H278.4V673.066667z m104.533333-249.6h170.666667c25.6 0 45.866667 7.466667 62.933333 21.333333 17.066667 13.866667 25.6 35.2 25.6 61.866667 0 29.866667-7.466667 51.2-22.4 64-14.933333 11.733333-37.333333 18.133333-65.066666 18.133333H384l-1.066667-165.333333z m0-262.4h184.533334c32 0 56.533333 8.533333 73.6 24.533333 17.066667 16 26.666667 39.466667 26.666666 70.4 0 29.866667-8.533333 52.266667-26.666666 68.266667s-42.666667 23.466667-73.6 23.466666H382.933333v-186.666666z"  horiz-adv-x="1024" />

    
    <glyph glyph-name="weibiaoti-" unicode="&#58895;" d="M507.345455-62.836364c-174.545455 0-335.127273 102.4-407.272728 262.981819l44.218182 18.618181c65.163636-141.963636 207.127273-235.054545 365.381818-235.054545C728.436364-16.290909 907.636364 162.909091 907.636364 384S728.436364 784.290909 507.345455 784.290909c-148.945455 0-286.254545-81.454545-356.072728-216.436364l-41.890909 20.945455C188.509091 740.072727 339.781818 830.836364 507.345455 830.836364 754.036364 830.836364 954.181818 630.690909 954.181818 384s-200.145455-446.836364-446.836363-446.836364zM69.818182 144.290909L93.090909 267.636364l114.036364-53.527273zM472.436364 498.036364c16.290909-13.963636 23.272727-32.581818 23.272727-55.854546 0-20.945455-9.309091-41.890909-25.6-60.509091-9.309091-9.309091-27.927273-23.272727-53.527273-41.890909-25.6-16.290909-41.890909-32.581818-48.872727-46.545454h128v-37.236364h-179.2c0 25.6 9.309091 48.872727 25.6 67.490909 9.309091 11.636364 27.927273 25.6 58.181818 46.545455 16.290909 11.636364 27.927273 20.945455 34.909091 27.927272 11.636364 11.636364 16.290909 25.6 16.290909 39.563637 0 13.963636-4.654545 23.272727-11.636364 30.254545-6.981818 6.981818-18.618182 9.309091-32.581818 9.309091-16.290909 0-27.927273-4.654545-34.909091-16.290909-6.981818-9.309091-11.636364-25.6-13.963636-46.545455h-41.890909c0 27.927273 9.309091 51.2 25.6 69.818182 16.290909 18.618182 39.563636 27.927273 67.490909 27.927273 25.6 9.309091 46.545455 0 62.836364-13.963636zM646.981818 514.327273h39.563637v-167.563637h37.236363V314.181818h-37.236363v-55.854545h-39.563637V314.181818h-123.345454v39.563637l123.345454 160.581818z m-2.327273-53.527273l-88.436363-116.363636h90.763636l-2.327273 116.363636zM498.036364 807.563636v-95.418181M474.763636 807.563636h46.545455v-95.418181h-46.545455zM919.272727 384h-95.418182M823.854545 407.272727h95.418182v-46.545454h-95.418182z"  horiz-adv-x="1024" />

    
    <glyph glyph-name="react" unicode="&#58955;" d="M512 384m-91.264 0a91.264 91.264 0 1 1 182.528 0 91.264 91.264 0 1 1-182.528 0ZM256.341333 202.453333l-20.138666 5.12C86.101333 245.504 0 309.888 0 384.170667s86.101333 138.666667 236.202667 176.597333l20.138666 5.077333 5.674667-19.968a1003.946667 1003.946667 0 0 1 58.154667-152.661333l4.309333-9.088-4.309333-9.088a994.432 994.432 0 0 1-58.154667-152.661333l-5.674667-19.925334zM226.858667 514.133333c-114.090667-32.042667-184.106667-81.066667-184.106667-129.962666 0-48.853333 70.016-97.877333 184.106667-129.962667a1064.533333 1064.533333 0 0 0 50.432 129.962667A1056.085333 1056.085333 0 0 0 226.858667 514.133333z m540.8-311.68l-5.674667 20.010667a996.565333 996.565333 0 0 1-58.197333 152.618667l-4.309334 9.088 4.309334 9.088a999.253333 999.253333 0 0 1 58.197333 152.661333l5.674667 19.968 20.181333-5.077333c150.058667-37.930667 236.16-102.314667 236.16-176.64s-86.101333-138.666667-236.16-176.597334l-20.181333-5.12z m-20.949334 181.717334c20.48-44.330667 37.418667-87.893333 50.432-129.962667 114.133333 32.085333 184.106667 81.109333 184.106667 129.962667 0 48.896-70.016 97.877333-184.106667 129.962666a1057.621333 1057.621333 0 0 0-50.432-129.962666zM226.56 514.346667l-5.674667 19.925333C178.688 683.008 191.488 789.589333 256 826.794667c63.274667 36.522667 164.864-6.613333 271.317333-115.882667l14.506667-14.890667-14.506667-14.890666a1004.885333 1004.885333 0 0 1-103.338666-126.592l-5.76-8.234667-10.026667-0.853333a1009.365333 1009.365333 0 0 1-161.493333-26.026667l-20.138667-5.077333z m80.896 282.88c-11.434667 0-21.546667-2.474667-30.08-7.381334-42.410667-24.448-49.92-109.44-20.693333-224.128a1071.872 1071.872 0 0 0 137.941333 21.376 1060.138667 1060.138667 0 0 0 87.552 108.544c-66.56 64.810667-129.578667 101.589333-174.72 101.589334z m409.130667-868.778667c-0.042667 0-0.042667 0 0 0-60.8 0-138.88 45.781333-219.904 128.981333l-14.506667 14.890667 14.506667 14.890667a1003.946667 1003.946667 0 0 1 103.296 126.634666l5.76 8.234667 9.984 0.853333a1008.213333 1008.213333 0 0 1 161.578666 25.984l20.138667 5.077334 5.717333-19.968c42.112-148.650667 29.354667-255.274667-35.157333-292.437334a101.546667 101.546667 0 0 0-51.413333-13.141333z m-174.762667 144.256c66.56-64.810667 129.578667-101.589333 174.72-101.589333h0.042667c11.392 0 21.546667 2.474667 30.037333 7.381333 42.410667 24.448 49.962667 109.482667 20.693333 224.170667a1067.52 1067.52 0 0 0-137.984-21.376 1052.757333 1052.757333 0 0 0-87.509333-108.586667zM797.44 514.346667l-20.138667 5.077333a1001.770667 1001.770667 0 0 1-161.578666 26.026667l-9.984 0.853333-5.76 8.234667a998.997333 998.997333 0 0 1-103.296 126.592l-14.506667 14.890666 14.506667 14.890667C603.093333 820.138667 704.64 863.274667 768 826.794667c64.512-37.205333 77.312-143.786667 35.157333-292.48l-5.717333-19.968zM629.333333 587.093333c48.725333-4.437333 95.018667-11.648 137.984-21.376 29.269333 114.688 21.717333 199.68-20.693333 224.128-42.154667 24.362667-121.386667-12.970667-204.8-94.208A1060.224 1060.224 0 0 0 629.333333 587.093333zM307.456-71.552A101.546667 101.546667 0 0 0 256-58.410667c-64.512 37.162667-77.312 143.744-35.114667 292.437334l5.632 19.968 20.138667-5.077334c49.28-12.416 103.637333-21.162667 161.493333-25.984l10.026667-0.853333 5.717333-8.234667a1006.762667 1006.762667 0 0 1 103.338667-126.634666l14.506667-14.890667-14.506667-14.890667c-80.981333-83.2-159.061333-128.981333-219.776-128.981333z m-50.773333 274.218667c-29.269333-114.688-21.717333-199.722667 20.693333-224.170667 42.112-24.021333 121.301333 13.013333 204.8 94.208a1066.581333 1066.581333 0 0 0-87.552 108.586667 1065.642667 1065.642667 0 0 0-137.941333 21.376zM512 175.872c-35.114667 0-71.210667 1.536-107.349333 4.522667l-10.026667 0.853333-5.76 8.234667a1296.554667 1296.554667 0 0 0-57.6 90.538666 1295.104 1295.104 0 0 0-49.749333 95.061334l-4.266667 9.088 4.266667 9.088a1292.8 1292.8 0 0 0 49.749333 95.061333c17.664 30.549333 37.077333 61.013333 57.6 90.538667l5.76 8.234666 10.026667 0.853334a1270.826667 1270.826667 0 0 0 214.741333 0l9.984-0.853334 5.717333-8.234666a1280.256 1280.256 0 0 0 107.392-185.6l4.309334-9.088-4.309334-9.088a1262.933333 1262.933333 0 0 0-107.392-185.6l-5.717333-8.234667-9.984-0.853333c-36.138667-2.986667-72.277333-4.522667-107.392-4.522667z m-93.738667 46.250667c63.146667-4.736 124.330667-4.736 187.52 0a1237.589333 1237.589333 0 0 1 93.696 162.048 1219.626667 1219.626667 0 0 1-93.738666 162.048 1238.656 1238.656 0 0 1-187.477334 0 1215.018667 1215.018667 0 0 1-93.738666-162.048 1242.197333 1242.197333 0 0 1 93.738666-162.048z"  horiz-adv-x="1024" />

    
    <glyph glyph-name="css" unicode="&#58963;" d="M64 896h896l-81.493333-920.021333L511.018667-128l-365.44 104.021333L64 896z m729.173333-188.288L230.826667 707.84l9.088-111.872 432-0.085333-10.88-115.882667h-283.306667l10.24-109.781333h263.765333l-15.616-150.314667-124.16-34.304-126.122666 34.56-8.021334 90.026667h-111.36l12.373334-164.48L512 73.045333l229.248 65.28L793.173333 707.669333z"  horiz-adv-x="1024" />

    
    <glyph glyph-name="shandianxia" unicode="&#58902;" d="M836.2 525.2c0-4-2.4-7.6-6-9.2-3.7-1.6-7.9-0.8-10.8 1.9-0.7 0.6-1.3 1.2-2 1.8-1.7-25.3-6.8-50.5-15.3-75-1.9-5.5-4-11.1-6.3-16.6 24.6 7.9 43.1 31.2 45.7 60.2 0.1 0.6 0.2 1.2 0.3 1.7V591.4h-5.5v-66.2zM851.7 611.4h-25.5c-5.5 0-10-4.5-10-10v-31.6c-7.4 65.5-38.1 126.2-88.2 173.4-57.7 54.5-134.5 84.5-216 84.5s-158.3-30-216.1-84.4c-46.3-43.7-76-98.9-86.1-158.8v16.9c0 5.5-4.5 10-10 10h-25.5c-5.5 0-10-4.5-10-10v-114c0-1.3 0.2-2.5 0.7-3.6 2.5-21 11.9-40.4 26.6-54.8 13.1-12.8 29.4-20.8 46.9-23.1 24.1-47.1 60-87.5 104.5-117.4 9.8-6.6 19.9-12.6 30.3-17.9-10.4-7.9-24.2-19.1-37.7-32-0.9-0.9-1.9-1.8-2.8-2.7-0.7-0.7-1.5-1.4-2.2-2.1-0.2-0.2-0.4-0.4-0.7-0.6-32.7-32.4-46.6-59.5-42.5-82.5 0-0.2 0.1-0.4 0.1-0.6 0-0.2 0.1-0.3 0.1-0.5 0.1-0.3 0.1-0.6 0.2-0.9 0.2-0.7 0.3-1.3 0.5-2 6.5-23.3 22.9-36.3 45-36.3h1.2c-0.1-0.7-0.2-1.5-0.4-2.2l-0.3-1.6c-0.1-0.3-0.1-0.7-0.2-1-0.2-0.9-0.3-1.9-0.4-2.9-0.1-0.8-0.3-1.6-0.4-2.4l-0.2-1.4c0-0.2-0.1-0.5-0.1-0.8-0.2-1.1-0.3-2.1-0.5-3.2-0.1-0.9-0.3-1.8-0.4-2.7l-0.2-1.2c0-0.2-0.1-0.4-0.1-0.7-0.1-0.5-0.1-0.9-0.2-1.4-0.2-1.7-0.4-3.3-0.7-5.1l-0.1-0.9v-0.2l-0.6-4.8c-0.1-0.8-0.2-1.7-0.3-2.5l-0.1-0.5c0-0.4-0.1-0.8-0.1-1.2-0.3-2.3-0.5-4.6-0.7-6.9 0-0.5-0.1-0.9-0.1-1.4v-0.8c-0.1-0.3-0.1-0.5-0.2-0.8-0.5-3.9-12-96.5 48.1-117.5 10.6-3.7 20.8-5.5 30.6-5.5 11.1 0 21.7 2.4 31.6 7.2 21 10.2 33.2 28.9 39.1 40.3 13.6-4 25.8-6.5 35.4-6.5 9.3 0 20.9 2.4 33.8 6.2 5.9-11.5 18.1-29.9 38.9-40 9.9-4.8 20.4-7.2 31.6-7.2 9.8 0 20 1.8 30.6 5.5 55.2 19.2 49.1 118.6 48.9 120.5-1.5 15-3.5 29.6-5.9 43.8 5.3 0.4 10.3 1.6 14.9 3.5h0.1c0.6 0.2 1.2 0.4 1.8 0.7 0.4 0.2 0.8 0.3 1.2 0.5 0.3 0.1 0.7 0.3 1 0.5 0.7 0.3 1.3 0.6 1.9 0.9 0.1 0 0.2 0.1 0.2 0.1 10.7 5.5 18.4 14.6 22.5 26.9 0.3 1 0.7 2.1 1 3.1l0.6 2.4c0.7 3.2 1 6.4 1 9.8-0.1 22.5-16.2 48.8-48.9 79.8-13.6 12.9-27.4 24.1-37.8 32 10.4 5.4 20.5 11.4 30.3 18 44.4 29.8 80.3 70.1 104.4 117.1 18.3 1.9 35.5 10 49.1 23.3 14.8 14.4 24.1 33.8 26.6 54.8 0.4 1.1 0.7 2.3 0.7 3.6v114c0.2 5.4-4.3 9.8-9.8 9.8z m-10-121.3c-0.2-0.6-0.3-1.1-0.3-1.7-2.6-29-21.1-52.3-45.7-60.2 2.3 5.5 4.4 11 6.3 16.6 8.5 24.5 13.6 49.6 15.3 75 0.7-0.6 1.3-1.2 2-1.8 2.9-2.7 7.2-3.5 10.8-1.9 3.7 1.6 6 5.2 6 9.2v66.3h5.5v-101.5z m-221-234.7c8.1-5.8 28.1-20.6 47.1-38.6 23.5-22.3 37.6-42.3 39.3-55.5 0.3-2.4 0.2-4.7-0.3-6.6-3.5-12.5-14.1-14.5-23.4-13.6-3 13.5-6.5 26.4-10.3 38.7-2.5 7.9-10.9 12.3-18.8 9.8s-12.3-10.9-9.8-18.8c8.9-28.4 15.5-60.5 19.7-95.6H359.8c0 0.4 0.1 0.8 0.1 1.2l0.3 2.7c0.2 1.2 0.3 2.4 0.5 3.6 0.2 1.3 0.3 2.6 0.5 3.8 0.2 1.3 0.4 2.6 0.5 3.8 0.2 1.2 0.3 2.3 0.5 3.4 0.2 1.4 0.4 2.7 0.6 4.1 0.2 1 0.3 2 0.5 3 0.2 1.4 0.5 2.8 0.7 4.1 0.2 0.9 0.3 1.9 0.5 2.8 0.2 1.4 0.5 2.8 0.7 4.2 0.2 0.9 0.3 1.8 0.5 2.6 0.3 1.4 0.5 2.8 0.8 4.3 0.2 0.8 0.3 1.6 0.5 2.5 3.5 17.5 7.6 34 12.4 49.4 2.5 7.9-1.9 16.3-9.8 18.8s-16.3-1.9-18.8-9.8c-3.8-12.3-7.3-25.1-10.3-38.6-0.4 0-0.8-0.1-1.1-0.2h-0.1c-8.9-0.6-18.8 1.7-22.1 13.7v0.1c-0.1 0.3-0.2 0.7-0.2 1 0 0.2-0.1 0.4-0.1 0.6 0 0.2 0 0.3-0.1 0.5-0.2 1.9 0 4.1 0.5 6.5 0.2 1.1 0.5 2.2 0.9 3.3 0.4 1.2 0.9 2.4 1.4 3.7 0.3 0.6 0.6 1.3 0.9 2 0.6 1.3 1.3 2.7 2.1 4.1 0.2 0.4 0.4 0.8 0.6 1.1 6.5 11.2 17.7 24.7 32.8 39 4 3.8 8 7.4 12 10.9 0.3 0.2 0.6 0.5 0.8 0.7 0.4 0.4 0.9 0.7 1.3 1.1l2.1 1.8c0.2 0.2 0.4 0.4 0.7 0.6 0.8 0.7 1.5 1.3 2.3 1.9l0.1 0.1c12.1 10.1 22.7 17.9 28.1 21.8h4.3c33.4-12.4 68.6-18.8 104.4-18.8s71.1 6.4 104.4 18.8h4.2z m-33.6-272c-4.2 4-7.6 8.5-10.1 12.5l90.4 42.7c-0.4-22.4-5.2-55.7-29.1-64-20.8-7.2-37.5-4.3-51.2 8.8z m-149.5 0c-13.7-13.1-30.5-16-51.2-8.8-23.7 8.3-28.6 41.5-29 63.9l90.3-42.6c-2.5-4-5.8-8.5-10.1-12.5z m74.5 23.3c-0.1 0-0.1 0 0 0-26.4 0-86.3 27-129.1 48.5h257.5c-42.5-21.5-102.1-48.5-128.4-48.5z m-0.1 259.9c-100.1 0-192.6 55.6-241.7 143.5h483.4C704.5 322.2 612 266.6 512 266.6zM184.3 490.1V591.4h5.5v-66.3c0-4 2.4-7.6 6-9.2 3.7-1.6 7.9-0.8 10.8 1.9l0.1 0.1c1.8-24.7 6.9-49.3 15.2-73.2 1.8-5.2 3.8-10.5 6-15.7-23.4 8.6-40.8 31.3-43.3 59.3 0 0.6-0.1 1.2-0.3 1.8zM512 797.7c152.2 0 276-116.3 276-259.3 0-28.3-4.8-56.5-14.3-83.9-1.7-4.8-3.5-9.6-5.5-14.4H255.7c-2 4.8-3.8 9.6-5.5 14.4-9.5 27.4-14.3 55.6-14.3 83.9 0.1 143 123.9 259.3 276.1 259.3zM227.9 429c-2.2 5.2-4.2 10.5-6 15.7-8.3 23.9-13.4 48.5-15.2 73.2l-0.1-0.1c-2.9-2.7-7.2-3.5-10.8-1.9-3.7 1.6-6 5.2-6 9.2v66.3h-5.5V490c0.2-0.6 0.3-1.1 0.3-1.7 2.5-28 19.9-50.7 43.3-59.3zM386.4-25.4c20.7-7.2 37.5-4.3 51.2 8.8 4.2 4 7.6 8.5 10.1 12.5l-90.3 42.6c0.4-22.4 5.3-55.6 29-63.9zM667.4 38.6L577-4.1c2.5-4 5.9-8.5 10.1-12.5 13.7-13.1 30.5-16 51.2-8.8 23.8 8.3 28.7 41.6 29.1 64zM407.5 255.4h-4.3c-5.4-3.8-16-11.7-28.1-21.8l-0.1-0.1c-0.8-0.6-1.5-1.3-2.3-1.9-0.2-0.2-0.4-0.4-0.7-0.6l-2.1-1.8c-0.4-0.4-0.9-0.7-1.3-1.1-0.3-0.2-0.6-0.5-0.8-0.7-4-3.5-8-7.1-12-10.9-15.1-14.4-26.3-27.8-32.8-39-0.2-0.4-0.4-0.8-0.6-1.1-0.8-1.4-1.5-2.8-2.1-4.1-0.3-0.7-0.6-1.3-0.9-2-0.5-1.3-1-2.5-1.4-3.7-0.4-1.1-0.7-2.3-0.9-3.3-0.5-2.4-0.7-4.6-0.5-6.5 0-0.2 0-0.3 0.1-0.5 0-0.2 0.1-0.4 0.1-0.6 0.1-0.4 0.1-0.7 0.2-1v-0.1c3.3-12 13.2-14.3 22.1-13.7h0.1c0.4 0.1 0.7 0.1 1.1 0.2 3 13.4 6.4 26.3 10.3 38.6 2.5 7.9 10.9 12.3 18.8 9.8s12.3-10.9 9.8-18.8c-4.8-15.4-9-31.9-12.4-49.4-0.2-0.8-0.3-1.6-0.5-2.5-0.3-1.4-0.5-2.8-0.8-4.3-0.2-0.9-0.3-1.8-0.5-2.6-0.3-1.4-0.5-2.8-0.7-4.2-0.2-0.9-0.3-1.9-0.5-2.8-0.2-1.4-0.5-2.8-0.7-4.1-0.2-1-0.3-2-0.5-3-0.2-1.4-0.4-2.7-0.6-4.1-0.2-1.1-0.3-2.3-0.5-3.4-0.2-1.3-0.4-2.6-0.5-3.8-0.2-1.3-0.3-2.5-0.5-3.8-0.2-1.2-0.3-2.4-0.5-3.6l-0.3-2.7c0-0.4-0.1-0.8-0.1-1.2H664c-4.2 35.1-10.8 67.2-19.7 95.6-2.5 7.9 1.9 16.3 9.8 18.8s16.3-1.9 18.8-9.8c3.8-12.3 7.3-25.2 10.3-38.7 9.2-0.9 19.9 1.1 23.4 13.6 0.5 1.9 0.6 4.2 0.3 6.6-1.7 13.2-15.8 33.2-39.3 55.5-19 18-39 32.8-47.1 38.6h-4.3C583 243 547.8 236.6 512 236.6s-71.1 6.4-104.5 18.8z m117.9-29.6c1.6 0 3.2-0.4 4.6-1.1 4.3-2.3 6.3-7.3 4.9-11.9l-2.9-9.2c16.6-7.7 28.2-24.5 28.2-44 0-26.7-21.8-48.5-48.5-48.5h-0.7l-13-14.5c-2-2.2-4.7-3.3-7.5-3.3-1.7 0-3.5 0.4-5 1.4-4.1 2.4-6 7.3-4.4 11.8l4.2 12.4c-13.3 8.7-22.1 23.7-22.1 40.7 0 25 19 45.6 43.3 48.2l11 14.2c2 2.4 4.9 3.8 7.9 3.8zM383 55.2c42.8-21.5 102.6-48.5 129-48.5 26.3 0 85.9 27 128.5 48.5H383zM236 538.4c0-28.3 4.8-56.5 14.3-83.9 1.7-4.8 3.5-9.6 5.5-14.4h512.5c2 4.8 3.8 9.6 5.5 14.4 9.5 27.4 14.3 55.6 14.3 83.9 0 143-123.8 259.3-276 259.3S236 681.4 236 538.4z m492.9 37.9l3-9.6c13.4-43.3-10.9-89.5-54.2-102.9-8-2.5-16.3-3.7-24.4-3.7-13.2 0-26.2 3.2-38.2 9.5-19.4 10.2-33.7 27.4-40.2 48.4l-3 9.6 157 48.7zM292 566.7l3 9.6 157.1-48.7-3-9.6c-6.5-21-20.8-38.2-40.2-48.4-12-6.3-25.1-9.5-38.2-9.5-8.2 0-16.4 1.2-24.4 3.7-43.4 13.5-67.7 59.6-54.3 102.9zM352.2 482.9c29.5-9.2 60.8 4.9 74.1 31.7L309 551c-4.2-29.7 13.6-58.9 43.2-68.1zM346.2 463.8c8-2.5 16.3-3.7 24.4-3.7 13.2 0 26.2 3.2 38.2 9.5 19.4 10.2 33.7 27.4 40.2 48.4l3 9.6-157 48.7-3-9.6c-13.4-43.3 10.9-89.4 54.2-102.9zM309 551l117.4-36.4c-13.3-26.8-44.6-40.9-74.1-31.7-29.7 9.2-47.5 38.4-43.3 68.1zM624.3 487.3c14.7-7.7 31.6-9.3 47.4-4.4 29.5 9.2 47.4 38.4 43.2 68.1l-117.4-36.4c5.9-11.6 15.1-21.1 26.8-27.3zM615 469.6c12-6.3 25.1-9.5 38.2-9.5 8.2 0 16.4 1.2 24.4 3.7 43.3 13.4 67.6 59.6 54.2 102.9l-3 9.6-157.1-48.7 3-9.6c6.6-21 20.9-38.1 40.3-48.4zM715 551c4.2-29.7-13.7-58.9-43.2-68.1-15.9-4.9-32.7-3.4-47.4 4.4-11.7 6.2-21 15.7-26.7 27.3L715 551zM753.7 410.1H270.3c49.1-87.9 141.6-143.5 241.7-143.5s192.5 55.6 241.7 143.5zM489 129.6c-0.8 0.1-1.5 0.3-2.2 0.5 0.6-0.5 1.2-1 1.9-1.5l0.3 1zM550.2 159.5c0 15-8.7 28.1-21.2 34.4l-1.6-5.1c3.3-0.2 6.2-2 7.9-4.8 1.8-3 2-6.7 0.4-9.8l-6.9-13.5h4.5c3.9 0 7.5-2.3 9.1-5.9 1.6-3.6 1-7.8-1.7-10.8L521 122c16.7 4.3 29.2 19.4 29.2 37.5zM473.2 159.5c0-8.4 2.7-16.2 7.3-22.5-0.6 2.4-0.4 4.9 0.7 7.2l8.6 16.9c-3.5 0.3-6.5 2.4-8.1 5.6-1.7 3.4-1.3 7.5 1.1 10.5l13.8 17.8c-13.8-6-23.4-19.7-23.4-35.5zM463.2 159.5c0-17 8.8-32 22.1-40.7l-4.2-12.4c-1.5-4.5 0.3-9.4 4.4-11.8 1.6-0.9 3.3-1.4 5-1.4 2.8 0 5.5 1.1 7.5 3.3l13 14.5h0.7c26.7 0 48.5 21.8 48.5 48.5 0 19.5-11.6 36.3-28.2 44l2.9 9.2c1.5 4.6-0.6 9.6-4.9 11.9-1.5 0.8-3.1 1.1-4.6 1.1-3 0-6-1.4-7.9-3.9l-11-14.2c-24.3-2.5-43.3-23.2-43.3-48.1z m50.4 19.3h13.1l-14.3-28h20.8l-42.7-47.6 12.3 36.4H490l16 31.4h-15.4l34.7 44.8-11.7-37z m27.1-34.7c2.6 2.9 3.3 7.1 1.7 10.8-1.6 3.6-5.2 5.9-9.1 5.9h-4.5l6.9 13.5c1.6 3.1 1.4 6.8-0.4 9.8-1.7 2.8-4.7 4.6-7.9 4.8l1.6 5.1c12.6-6.3 21.2-19.4 21.2-34.4 0-18-12.4-33.2-29.2-37.4l19.7 21.9z m-57.9 33c-2.3-3-2.8-7.1-1.1-10.5 1.5-3.2 4.6-5.3 8.1-5.6l-8.6-16.9c-1.1-2.2-1.4-4.8-0.7-7.2-4.6 6.3-7.3 14.1-7.3 22.5 0 15.9 9.6 29.5 23.4 35.4l-13.8-17.7z m6.2-47.5l-0.3-1c-0.7 0.5-1.3 1-1.9 1.5 0.7-0.2 1.4-0.4 2.2-0.5zM490.7 170.9h15.4l-16-31.3h12.8l-12.3-36.4 42.7 47.6h-20.9l14.3 28h-13.1l11.8 37z"  horiz-adv-x="1024" />

    
    <glyph glyph-name="ziyuan" unicode="&#58903;" d="M294.326857 340.114286h761.417143v-248.685715a175.542857 175.542857 0 0 0-175.542857-175.542857H469.869714a175.542857 175.542857 0 0 0-175.542857 175.542857V340.114286zM877.714286-128H204.8A204.8 204.8 0 0 0 0 76.8V471.771429a29.257143 29.257143 0 0 0 29.257143 29.257142h1024a29.257143 29.257143 0 0 0 29.257143-29.257142v-394.971429a204.8 204.8 0 0 0-204.8-204.8zM58.514286 442.514286v-365.714286a146.285714 146.285714 0 0 1 146.285714-146.285714h672.914286a146.285714 146.285714 0 0 1 146.285714 146.285714V442.514286zM321.828571 442.514286H146.285714a29.257143 29.257143 0 0 0-29.257143 29.257143V866.742857a29.257143 29.257143 0 0 0 29.257143 29.257143h175.542857a29.257143 29.257143 0 0 0 29.257143-29.257143v-394.971428a29.257143 29.257143 0 0 0-29.257143-29.257143z m-146.285714 58.514285h117.028572V837.485714h-117.028572zM950.857143 442.514286H775.314286a29.257143 29.257143 0 0 0-29.257143 29.257143V866.742857a29.257143 29.257143 0 0 0 29.257143 29.257143h175.542857a29.257143 29.257143 0 0 0 29.257143-29.257143v-394.971428a29.257143 29.257143 0 0 0-29.257143-29.257143z m-146.285714 58.514285h117.028571V837.485714h-117.028571zM471.04 457.142857a29.257143 29.257143 0 0 0-28.233143 21.650286L356.790857 799.744a29.257143 29.257143 0 0 0 20.626286 35.84L547.108571 881.371429a29.257143 29.257143 0 0 0 35.693715-20.626286l94.354285-351.085714a29.257143 29.257143 0 0 0-56.612571-14.628572l-86.601143 321.828572-113.078857-30.281143 78.409143-292.571429a29.257143 29.257143 0 0 0-20.626286-35.84 27.940571 27.940571 0 0 0-7.606857-1.024z"  horiz-adv-x="1082" />

    
    <glyph glyph-name="wendang" unicode="&#59231;" d="M579.84 625.984h276.416a34.56 34.56 0 1 1 0 69.12H579.84a34.496 34.496 0 1 1 0-69.12zM856.256 588.864H498.56a839.936 839.936 0 0 0-16.768 62.784c-17.664 73.216-26.496 110.016-61.824 110.016H165.056C109.312 761.664 64 708.544 64 643.2v-518.336C64 59.52 109.312 6.4 165.056 6.4h691.2c55.744 0 101.12 53.12 101.12 118.528v345.6c0 65.216-45.376 118.336-101.12 118.336z m37.12-464c0-29.504-17.024-54.528-37.12-54.528h-691.2C144.96 70.4 128 95.36 128 124.864V643.2c0 29.504 16.96 54.464 37.056 54.464h238.272c5.12-15.04 11.584-41.792 16.192-60.992 17.92-74.432 26.944-111.808 62.656-111.808h374.016c20.096 0 37.12-24.896 37.12-54.4v-345.6z"  horiz-adv-x="1024" />

    
    <glyph glyph-name="aixin" unicode="&#58906;" d="M797.97369512 681.15566787c-19.0870552 0-37.66071016-3.63372802-55.60687712-10.92970655-17.98039396-7.30168303-34.02698212-18.0260292-48.16828769-32.23008348L590.37772952 533.86703721l-103.82080078 104.12884063c-14.15841904 14.20405428-30.19359893 24.92840118-48.18540115 32.23008348a146.33028487 146.33028487 0 0 1-55.60687787 10.92970655c-26.76523057 0-51.3798874-6.56010588-73.82685701-19.72024765-22.47549209-13.13732453-40.23341219-30.97510683-53.35362395-53.50764387-13.10880204-22.54394531-19.65749893-47.22135087-19.65749892-74.06073914a148.31542969 148.31542969 0 0 1 10.88977581-55.81794131c7.28456954-18.0260292 18.00321123-34.11254883 32.14451678-48.31089932l311.41676709-312.39793018 311.39394913 312.39793018c14.12989657 14.20405428 24.83712997 30.28487014 32.09888154 48.31089932a147.66512374 147.66512374 0 0 1 10.92400206 55.81794131c0 26.83938828-6.57151414 51.51679384-19.66890792 74.06073914-13.08598478 22.53253632-30.86672286 40.37031936-53.36503293 53.50764387-22.43556063 13.16584627-47.0274002 19.72024765-73.81544803 19.72024765h0.02281726z m1e-8 73.63290635c39.9595993 0 76.8102791-9.89720304 110.57485733-29.64026796 33.74176026-19.77729188 60.4328331-46.55393144 80.10744551-80.39266739 19.68031691-33.83303145 29.520475-70.79209519 29.55470198-110.88860166 0-28.77889786-5.52760164-56.72494736-16.48583069-83.84955751-11.01527254-27.09608841-27.01052168-51.22586748-48.0599037-72.34370344L590.38343402 13.211425780000013l-363.3157585 364.46235048C206.05251975 398.76308975 190.04015784 422.90427782 179.03058978 450.0174797 168.0609525 477.17061232 162.54475911 505.10525284 162.54475911 533.8727417c0 40.067984 9.84015809 77.02704774 29.55470126 110.88289717C211.77407279 678.63430557 238.48796361 705.40524063 272.20690589 725.14830626 305.97148411 744.89137118 342.78793693 754.76575624 382.77035422 754.78857422c28.86446455 0 56.71353837-5.4762619 83.57004013-16.41737746 26.83938828-10.91829757 50.90641935-27.03904343 72.09270782-48.3337166l51.90469589-52.04160232 51.89899141 52.04160233c21.03797303 21.11783525 45.06507264 37.16442412 72.12693478 48.19110566C741.3913587 749.25526809 769.25184223 754.78857422 797.92805989 754.78857422h0.04563523z"  horiz-adv-x="1181" />

    
    <glyph glyph-name="shuzhuo" unicode="&#58907;" d="M515.357692 466.599213h13.238898c7.290987 0 13.238898-5.947911 13.238898-13.238898v-501.926925c0-7.290987-5.947911-13.238898-13.238898-13.238899h-13.238898c-7.290987 0-13.238898 5.947911-13.238899 13.238899V453.360315c0 7.290987 5.756043 13.238898 13.238899 13.238898zM539.149335 895.424396c7.290987-0.383736 12.855162-6.523515 12.471426-13.814503l-33.19318-633.164699c-0.383736-7.290987-6.523515-12.855162-13.814502-12.471426-7.290987 0.383736-12.855162 6.523515-12.471426 13.814503l33.193179 633.164699C525.718568 890.243957 531.858347 895.808132 539.149335 895.424396zM927.298482 895.424396c7.290987 0.383736 13.430766-5.180438 13.814503-12.471426l33.19318-633.164699c0.383736-7.290987-5.180438-13.430766-12.471426-13.814503-7.290987-0.383736-13.430766 5.180438-13.814503 12.471426l-33.19318 633.164699c-0.383736 7.290987 5.180438 13.430766 12.471426 13.814503zM938.043095 466.599213h13.238899c7.290987 0 13.238898-5.947911 13.238898-13.238898v-501.926925c0-7.290987-5.947911-13.238898-13.238898-13.238899h-13.238899c-7.290987 0-13.238898 5.947911-13.238898 13.238899V453.360315c0 7.290987 5.947911 13.238898 13.238898 13.238898zM780.327525 849.184186c0 7.674724-4.796702 13.814503-10.744613 13.814502h-72.718007c-5.947911 0-10.744613-6.139779-10.744613-13.814502l-13.622634-500.967585c0-7.674724 4.796702-13.814503 10.744613-13.814502h99.963275c5.947911 0 10.744613 6.139779 10.744613 13.814502l-13.622634 500.967585zM13.238898 532.601836h1426.731123c7.290987 0 13.238898-5.947911 13.238898-13.238898V136.202361c0-7.290987-5.947911-13.238898-13.238898-13.238898H13.238898c-7.290987 0-13.238898 5.947911-13.238898 13.238898V519.362938c0 7.482856 5.947911 13.238898 13.238898 13.238898zM13.238898 532.601836h343.443883c7.290987 0 13.238898-5.947911 13.238898-13.238898v-634.12404c0-7.290987-5.947911-13.238898-13.238898-13.238898H13.238898c-7.290987 0-13.238898 5.947911-13.238898 13.238898V519.362938c0 7.482856 5.947911 13.238898 13.238898 13.238898zM1096.526138 532.601836h343.443883c7.290987 0 13.238898-5.947911 13.238898-13.238898v-634.12404c0-7.290987-5.947911-13.238898-13.238898-13.238898h-343.443883c-7.290987 0-13.238898 5.947911-13.238898 13.238898V519.362938c0 7.482856 5.947911 13.238898 13.238898 13.238898zM1142.766348 486.361626h250.963463c7.290987 0 13.238898-5.947911 13.238898-13.238898v-303.919056c0-7.290987-5.947911-13.238898-13.238898-13.238898H1142.766348c-7.290987 0-13.238898 5.947911-13.238898 13.238898V473.122728c0 7.482856 5.947911 13.238898 13.238898 13.238898zM1393.729811 473.314596v-303.919055H1142.766348V473.314596h250.963463m0 13.238898H1142.766348c-7.290987 0-13.238898-5.947911-13.238898-13.238898v-303.919055c0-7.290987 5.947911-13.238898 13.238898-13.238899h250.963463c7.290987 0 13.238898 5.947911 13.238898 13.238899V473.314596c0 7.290987-5.947911 13.238898-13.238898 13.238898zM59.479108 486.361626h250.963463c7.290987 0 13.238898-5.947911 13.238898-13.238898v-303.919056c0-7.290987-5.947911-13.238898-13.238898-13.238898H59.479108c-7.290987 0-13.238898 5.947911-13.238898 13.238898V473.122728c0 7.482856 5.947911 13.238898 13.238898 13.238898zM310.442571 473.314596v-303.919055H59.479108V473.314596h250.963463m0 13.238898H59.479108c-7.290987 0-13.238898-5.947911-13.238898-13.238898v-303.919055c0-7.290987 5.947911-13.238898 13.238898-13.238899h250.963463c7.290987 0 13.238898 5.947911 13.238898 13.238899V473.314596c0 7.290987-5.947911 13.238898-13.238898 13.238898zM1142.766348 116.439948h250.963463c7.290987 0 13.238898-5.947911 13.238898-13.238899v-171.721941c0-7.290987-5.947911-13.238898-13.238898-13.238898H1142.766348c-7.290987 0-13.238898 5.947911-13.238898 13.238898v171.721941c0 7.482856 5.947911 13.238898 13.238898 13.238899zM1393.729811 103.392917v-171.721941H1142.766348v171.721941h250.963463m0 13.047031H1142.766348c-7.290987 0-13.238898-5.947911-13.238898-13.238899v-171.721941c0-7.290987 5.947911-13.238898 13.238898-13.238898h250.963463c7.290987 0 13.238898 5.947911 13.238898 13.238898v171.721941c0 7.482856-5.947911 13.238898-13.238898 13.238899zM59.479108 116.439948h250.963463c7.290987 0 13.238898-5.947911 13.238898-13.238899v-171.721941c0-7.290987-5.947911-13.238898-13.238898-13.238898H59.479108c-7.290987 0-13.238898 5.947911-13.238898 13.238898v171.721941c0 7.482856 5.947911 13.238898 13.238898 13.238899zM310.442571 103.392917v-171.721941H59.479108v171.721941h250.963463m0 13.047031H59.479108c-7.290987 0-13.238898-5.947911-13.238898-13.238899v-171.721941c0-7.290987 5.947911-13.238898 13.238898-13.238898h250.963463c7.290987 0 13.238898 5.947911 13.238898 13.238898v171.721941c0 7.482856-5.947911 13.238898-13.238898 13.238899zM389.684092 486.361626h673.840735c7.290987 0 13.238898-5.947911 13.238898-13.238898v-303.919056c0-7.290987-5.947911-13.238898-13.238898-13.238898H389.684092c-7.290987 0-13.238898 5.947911-13.238898 13.238898V473.122728c0 7.482856 5.947911 13.238898 13.238898 13.238898zM1063.524827 473.314596v-303.919055H389.684092V473.314596h673.840735m0 13.238898H389.684092c-7.290987 0-13.238898-5.947911-13.238898-13.238898v-303.919055c0-7.290987 5.947911-13.238898 13.238898-13.238899h673.840735c7.290987 0 13.238898 5.947911 13.238898 13.238899V473.314596c0 7.290987-5.947911 13.238898-13.238898 13.238898zM455.878583 420.359003h541.64362c7.290987 0 13.238898-5.947911 13.238899-13.238898v-171.721941c0-7.290987-5.947911-13.238898-13.238899-13.238898H455.878583c-7.290987 0-13.238898 5.947911-13.238898 13.238898v171.721941c0 7.290987 5.947911 13.238898 13.238898 13.238898zM997.522203 407.120105v-171.721941H455.878583v171.721941h541.64362m0 13.238898H455.878583c-7.290987 0-13.04703-5.947911-13.04703-13.238898v-171.721941c0-7.290987 5.947911-13.238898 13.238899-13.238898H997.714072c7.290987 0 13.238898 5.947911 13.238898 13.238898v171.721941c-0.191868 7.290987-6.139779 13.238898-13.430767 13.238898zM13.238898 532.601836h1426.731123c7.290987 0 13.238898-5.947911 13.238898-13.238898V493.07701H0v26.477796c0 7.290987 5.947911 13.04703 13.238898 13.04703zM515.357692 896h435.924302c7.290987 0 13.238898-5.947911 13.238898-13.238898v-13.238899c0-7.290987-5.947911-13.238898-13.238898-13.238898H515.357692c-7.290987 0-13.238898 5.947911-13.238899 13.238898V882.761102c0 7.290987 5.756043 13.238898 13.238899 13.238898zM13.238898 532.601836h13.238899c7.290987 0 13.238898-5.947911 13.238898-13.238898v-634.12404c0-7.290987-5.947911-13.238898-13.238898-13.238898H13.238898c-7.290987 0-13.238898 5.947911-13.238898 13.238898V519.362938c0 7.482856 5.947911 13.238898 13.238898 13.238898zM343.443882 532.601836h13.238899c7.290987 0 13.238898-5.947911 13.238898-13.238898v-634.12404c0-7.290987-5.947911-13.238898-13.238898-13.238898H343.443882c-7.290987 0-13.238898 5.947911-13.238898 13.238898V519.362938c0 7.482856 5.947911 13.238898 13.238898 13.238898zM13.238898 149.633127h1426.731123c7.290987 0 13.238898-5.947911 13.238898-13.238898 0-7.290987-5.947911-13.238898-13.238898-13.238898H13.238898c-7.290987 0-13.238898 5.947911-13.238898 13.238898 0 7.290987 5.947911 13.238898 13.238898 13.238898zM13.238898-88.283305h343.443883c7.290987 0 13.238898-5.947911 13.238898-13.238898v-13.238899c0-7.290987-5.947911-13.238898-13.238898-13.238898H13.238898c-7.290987 0-13.238898 5.947911-13.238898 13.238898v13.238899c0 7.290987 5.947911 13.238898 13.238898 13.238898zM1096.526138 532.601836h13.238899c7.290987 0 13.238898-5.947911 13.238898-13.238898v-634.12404c0-7.290987-5.947911-13.238898-13.238898-13.238898h-13.238899c-7.290987 0-13.238898 5.947911-13.238898 13.238898V519.362938c0 7.482856 5.947911 13.238898 13.238898 13.238898zM1426.92299 532.601836h13.238899c7.290987 0 13.238898-5.947911 13.238898-13.238898v-634.12404c0-7.290987-5.947911-13.238898-13.238898-13.238898h-13.238899c-7.290987 0-13.238898 5.947911-13.238898 13.238898V519.362938c0 7.482856 5.947911 13.238898 13.238898 13.238898zM1096.526138-88.283305h343.443883c7.290987 0 13.238898-5.947911 13.238898-13.238898v-13.238899c0-7.290987-5.947911-13.238898-13.238898-13.238898h-343.443883c-7.290987 0-13.238898 5.947911-13.238898 13.238898v13.238899c0 7.290987 5.947911 13.238898 13.238898 13.238898zM125.481731 559.079633h211.438636c3.645494 0 6.523515-2.878021 6.523515-6.523515v-13.238899c0-3.645494-2.878021-6.523515-6.523515-6.523515H125.481731c-3.645494 0-6.523515 2.878021-6.523515 6.523515V552.556118c0 3.645494 2.878021 6.523515 6.523515 6.523515zM283.964774 803.51958v-6.523515c0-7.290987 5.947911-13.238898 13.238898-13.238898 10.936481 0 19.762413-8.825932 19.762414-19.762413v-204.915121H145.244145V763.994754c0 10.936481 8.825932 19.762413 19.762413 19.762413 7.290987 0 13.238898 5.947911 13.238898 13.238898v6.523515H283.964774m0 13.238899H178.437324c-7.290987 0-13.238898-5.947911-13.238898-13.238899v-6.523515c-18.227469 0-33.001312-14.773843-33.001312-33.001311v-217.962151h198.199738V763.994754c0 18.227469-14.773843 33.001312-33.001311 33.001311v6.523515c-0.191868 7.290987-6.139779 13.238898-13.430767 13.238899zM257.678846 797.955406c3.645494 0 6.523515-2.878021 6.523515-6.523515v-158.483043c0-3.645494-2.878021-6.523515-6.523515-6.523515s-6.523515 2.878021-6.523515 6.523515V791.431891c-0.191868 3.453626 2.878021 6.523515 6.523515 6.523515zM257.678846 816.758479c1.726813 0 3.261758-1.534945 3.261757-3.261758v-19.762413c0-1.726813-1.534945-3.261758-3.261757-3.261758-1.726813 0-3.261758 1.534945-3.261758 3.261758V813.496721c0 1.726813 1.343077 3.261758 3.261758 3.261758zM257.678846 605.319843c-17.843732 0-18.035601 48.542627-17.843733 48.350758 0 4.412966 8.442196 16.692524 17.07626 16.884392 9.209668 0.191868 18.419337-12.279558 18.419337-16.884392 0 0.191868 0-48.350759-17.651864-48.350758zM204.723253 797.955406c3.645494 0 6.523515-2.878021 6.523515-6.523515v-133.156455c0-3.645494-2.878021-6.523515-6.523515-6.523515s-6.523515 2.878021-6.523515 6.523515V791.431891c0 3.453626 2.878021 6.523515 6.523515 6.523515zM204.723253 816.758479c1.726813 0 3.261758-1.534945 3.261757-3.261758v-19.762413c0-1.726813-1.534945-3.261758-3.261757-3.261758-1.726813 0-3.261758 1.534945-3.261758 3.261758V813.496721c0 1.726813 1.534945 3.261758 3.261758 3.261758zM204.723253 631.989507c-13.238898 0-13.430766 32.425707-13.238898 32.425708 0 2.878021 6.331647 12.663294 12.855162 12.663294s13.622634-9.785273 13.622634-12.663294c0-0.191868 0-32.425707-13.238898-32.425708zM184.960839 321.355068m-99.003934 0a99.003935 99.003935 0 1 1 198.007869 0 99.003935 99.003935 0 1 1-198.007869 0ZM184.960839 413.835488c51.036912 0 92.48042-41.443508 92.48042-92.48042s-41.443508-92.48042-92.48042-92.480419-92.48042 41.443508-92.480419 92.480419 41.443508 92.288552 92.480419 92.48042m0 6.523515c-54.682406 0-99.003935-44.321529-99.003934-99.003935s44.321529-99.003935 99.003934-99.003934S283.964774 266.672663 283.964774 321.355068s-44.321529 99.003935-99.003935 99.003935zM181.699082 420.167135v-197.816001c1.151209 0 2.110549-0.191868 3.261757-0.191868s2.110549 0.191868 3.261758 0.191868V420.167135c-1.151209 0-2.110549 0.191868-3.261758 0.191868s-2.110549-0.191868-3.261757-0.191868zM155.221285 226.7641c2.110549-0.575604 4.412966-1.151209 6.523515-1.726813V417.480982c-2.302417-0.575604-4.412966-0.95934-6.523515-1.726813v-188.990069zM128.743489 239.619262c2.110549-1.534945 4.412966-2.878021 6.523515-4.221098v171.530073c-2.302417-1.343077-4.412966-2.686153-6.523515-4.02923v-163.279745zM102.45756 266.672663c2.110549-3.069889 4.221098-5.947911 6.523516-8.825933v127.208544c-2.302417-2.878021-4.604834-5.756043-6.523516-8.825932V266.672663zM260.940603 384.863406v-127.208544c2.302417 2.878021 4.604834 5.756043 6.523515 8.825932v109.364812c-1.918681 3.261758-4.221098 6.139779-6.523515 9.0178zM234.462807 235.590032c2.302417 1.343077 4.412966 2.686153 6.523515 4.221098v163.087877c-2.110549 1.534945-4.412966 2.878021-6.523515 4.02923v-171.338205zM208.176878 225.037287c2.302417 0.575604 4.412966 0.95934 6.523515 1.726813v188.990069c-2.110549 0.767472-4.412966 1.151209-6.523515 1.726813v-192.443695zM1268.248079 321.355068m-99.003934 0a99.003935 99.003935 0 1 1 198.007869 0 99.003935 99.003935 0 1 1-198.007869 0ZM1268.248079 413.835488c51.036912 0 92.48042-41.443508 92.48042-92.48042s-41.443508-92.48042-92.48042-92.480419-92.48042 41.443508-92.480419 92.480419 41.443508 92.288552 92.480419 92.48042m0 6.523515c-54.682406 0-99.003935-44.513397-99.003934-99.195803 0-54.682406 44.513397-99.003935 99.195803-99.003934 54.682406 0 99.003935 44.321529 99.003934 99.003934 0 54.874274-44.321529 99.195803-99.195803 99.195803 0.191868 0 0.191868 0 0 0zM1264.986322 420.167135v-197.816001c1.151209 0 2.110549-0.191868 3.261757-0.191868s2.110549 0.191868 3.261758 0.191868V420.167135c-1.151209 0-2.110549 0.191868-3.261758 0.191868s-2.110549-0.191868-3.261757-0.191868zM1238.508525 226.7641c2.110549-0.575604 4.412966-1.151209 6.523515-1.726813V417.480982c-2.302417-0.575604-4.412966-0.95934-6.523515-1.726813v-188.990069zM1212.030729 239.619262c2.110549-1.534945 4.412966-2.878021 6.523515-4.221098v171.530073c-2.302417-1.343077-4.412966-2.686153-6.523515-4.02923v-163.279745zM1185.7448 266.672663c2.110549-3.069889 4.221098-5.947911 6.523516-8.825933v127.208544c-2.302417-2.878021-4.604834-5.756043-6.523516-8.825932V266.672663zM1344.227843 384.863406v-127.208544c2.302417 2.878021 4.604834 5.756043 6.523515 8.825932v109.364812c-1.918681 3.261758-4.02923 6.139779-6.523515 9.0178zM1317.750047 235.590032c2.302417 1.343077 4.412966 2.686153 6.523515 4.221098v163.087877c-2.110549 1.534945-4.412966 2.878021-6.523515 4.02923v-171.338205zM1291.464118 225.037287c2.302417 0.575604 4.412966 0.95934 6.523516 1.726813v188.990069c-2.110549 0.767472-4.412966 1.151209-6.523516 1.726813v-192.443695zM1063.524827 572.318531H1327.727188c3.645494 0 6.523515-2.878021 6.523515-6.523515v-26.477797c0-3.645494-2.878021-6.523515-6.523515-6.523515H1063.524827c-3.645494 0-6.523515 2.878021-6.523515 6.523515v26.477797c-0.191868 3.645494 2.878021 6.523515 6.523515 6.523515zM1076.763725 612.035226h264.202361c3.645494 0 6.523515-2.878021 6.523515-6.523515v-26.477797c0-3.645494-2.878021-6.523515-6.523515-6.523515H1076.763725c-3.645494 0-6.523515 2.878021-6.523515 6.523515v26.477797c-0.191868 3.453626 2.878021 6.523515 6.523515 6.523515z"  horiz-adv-x="1453" />

    
    <glyph glyph-name="weixin" unicode="&#59114;" d="M1024 276.48c0 143.36-138.24 256-307.2 256s-307.2-112.64-307.2-256 138.24-256 307.2-256c30.72 0 61.44 5.12 92.16 10.24l97.28-51.2-25.6 76.8c87.04 51.2 143.36 128 143.36 220.16z m-414.72 40.96c-30.72 0-51.2 20.48-51.2 51.2s20.48 51.2 51.2 51.2 51.2-20.48 51.2-51.2c0-25.6-25.6-51.2-51.2-51.2z m209.92 0c-30.72 0-51.2 20.48-51.2 51.2s20.48 51.2 51.2 51.2 51.2-20.48 51.2-51.2c0-25.6-25.6-51.2-51.2-51.2zM358.4 286.72c0 158.72 153.6 286.72 348.16 286.72h15.36c-40.96 133.12-179.2 235.52-353.28 235.52-204.8 0-368.64-138.24-368.64-307.2 0-107.52 66.56-204.8 168.96-256l-30.72-92.16L256 209.91999999999996c35.84-10.24 71.68-15.36 112.64-15.36h10.24c-15.36 30.72-20.48 61.44-20.48 92.16z m138.24 414.72c35.84 0 66.56-30.72 66.56-66.56s-30.72-66.56-66.56-66.56C460.8 573.44 430.08 604.1600000000001 430.08 640S460.8 701.44 496.64 701.44zM245.76 573.44c-35.84 0-61.44 30.72-61.44 66.56s30.72 66.56 66.56 66.56 61.44-30.72 61.44-66.56-30.72-66.56-66.56-66.56z"  horiz-adv-x="1024" />

    
    <glyph glyph-name="shubence" unicode="&#58958;" d="M328.817778-68.835556H69.404444v876.088889h258.275556v-876.088889z m-248.035556 10.24h236.657778V797.013333H80.782222v-855.608889zM199.111111 624.071111c-26.168889 0-46.648889 20.48-46.648889 46.648889s20.48 46.648889 46.648889 46.648889 46.648889-20.48 46.648889-46.648889-20.48-46.648889-46.648889-46.648889z m0 81.92c-19.342222 0-36.408889-15.928889-36.408889-36.408889 0-19.342222 15.928889-36.408889 36.408889-36.408889 19.342222 0 36.408889 15.928889 36.408889 36.408889 0 20.48-17.066667 36.408889-36.408889 36.408889zM75.093333 238.364444h248.035556v-10.24H75.093333zM75.093333 198.542222h248.035556v-10.24H75.093333zM606.435556-68.835556H348.16v876.088889h258.275556v-876.088889z m-248.035556 10.24h236.657778V797.013333H358.4v-855.608889zM477.866667 624.071111c-26.168889 0-46.648889 20.48-46.648889 46.648889s20.48 46.648889 46.648889 46.648889 46.648889-20.48 46.648889-46.648889-21.617778-46.648889-46.648889-46.648889z m0 81.92c-19.342222 0-36.408889-15.928889-36.408889-36.408889 0-19.342222 15.928889-36.408889 36.408889-36.408889 19.342222 0 36.408889 15.928889 36.408889 36.408889-1.137778 20.48-17.066667 36.408889-36.408889 36.408889zM353.848889 238.364444h248.035555v-10.24H353.848889zM353.848889 198.542222h248.035555v-10.24H353.848889zM719.075556-82.488889L604.16 786.773333l256 34.133334L976.213333-48.355556l-257.137777-34.133333z m-103.537778 860.16L728.177778-69.973333l234.382222 30.72-111.502222 847.644444-235.52-30.72zM749.795556 621.795556c-10.24 0-20.48 3.413333-28.444445 9.102222-10.24 7.964444-15.928889 18.204444-18.204444 30.72-1.137778 12.515556 1.137778 25.031111 9.102222 34.133333 7.964444 10.24 18.204444 15.928889 30.72 18.204445 25.031111 3.413333 48.924444-14.791111 52.337778-39.822223 3.413333-25.031111-14.791111-48.924444-39.822223-52.337777h-5.688888z m0 81.92h-4.551112c-9.102222-1.137778-18.204444-5.688889-23.893333-13.653334s-7.964444-17.066667-6.826667-26.168889c1.137778-9.102222 5.688889-18.204444 13.653334-23.893333s17.066667-7.964444 26.168889-6.826667c19.342222 2.275556 32.995556 20.48 30.72 39.822223-2.275556 18.204444-17.066667 30.72-35.271111 30.72zM930.053689 255.681422l1.353955-10.148978-245.873777-32.688355-1.365334 10.148978zM934.661689 215.9616l1.342578-10.148978-245.873778-32.688355-1.353956 10.148977z"  horiz-adv-x="1024" />

    
    <glyph glyph-name="jisuan" unicode="&#59474;" d="M315.076923 659.692308V777.846154h78.769231v-118.153846h118.153846v-78.769231h-118.153846v-118.153846h-78.769231v118.153846h-118.153846v78.769231h118.153846zM157.538462 29.538462h787.692307v-78.769231H78.769231V817.230769h78.769231v-787.692307z m433.230769 630.153846h315.076923v-78.769231H590.769231v78.769231z m0-393.846154h315.076923v-78.769231H590.769231v78.769231z m157.538461 39.384615a39.384615 39.384615 0 1 0-0.019692 78.749539A39.384615 39.384615 0 0 0 748.307692 305.230769z m0-236.307692a39.384615 39.384615 0 1 0-0.019692 78.749538A39.384615 39.384615 0 0 0 748.307692 68.923077zM354.461538 282.151385l83.554462 83.554461 55.689846-55.689846L410.151385 226.461538l83.554461-83.554461-55.689846-55.689846L354.461538 170.771692l-83.554461-83.554461-55.689846 55.689846L298.771692 226.461538l-83.554461 83.554462 55.689846 55.689846L354.461538 282.151385z"  horiz-adv-x="1024" />

    
    <glyph glyph-name="rili" unicode="&#58914;" d="M896-96H128a96.109 96.109 0 0 0-96 96V704a96.109 96.109 0 0 0 96 96h64.004a32 32 0 0 0 0-64H128a32.036 32.036 0 0 1-32-32v-704a32.036 32.036 0 0 1 32-32h768a32.036 32.036 0 0 1 32 32V704a32.036 32.036 0 0 1-32 32h-63.999a32 32 0 0 0 0 64H896a96.109 96.109 0 0 0 96-96v-704a96.109 96.109 0 0 0-96-96zM640 736H384a32 32 0 0 0 0 64h256a32 32 0 0 0 0-64z m96-64a32 32 0 0 0-32 32V832a32 32 0 0 0 64 0v-128a32 32 0 0 0-32-32z m-448 0a32 32 0 0 0-32 32V832a32 32 0 0 0 64 0v-128a32 32 0 0 0-32-32z m672-128H64a32 32 0 0 0 0 64h896a32 32 0 0 0 0-64zM352 192a32 32 0 0 0 0 64 64 64 0 1 1-64 64 32 32 0 0 0-64 0 128 128 0 1 0 128-128zM448 64H256a32 32 0 0 0-32 32v32a128.145 128.145 0 0 0 128 128 32 32 0 0 0 0-64 64.072 64.072 0 0 1-64-64h160a32 32 0 0 0 0-64z m256 0a32 32 0 0 0-32 32v32H544a32 32 0 0 0-32 32v32a32.001 32.001 0 0 0 5.96 18.6l160 224A32 32 0 0 0 736 416v-224h32a32 32 0 0 0 0-64h-32v-32a32 32 0 0 0-32-32zM583.325 192H672V316.145z"  horiz-adv-x="1024" />

    
    <glyph glyph-name="ziyuanldpi" unicode="&#58909;" d="M182.857143-128a73.142857 73.142857 0 0 0-34.377143 8.777143A73.142857 73.142857 0 0 0 109.714286-54.85714299999995V822.857143A73.142857 73.142857 0 0 0 148.48 887.222857a73.142857 73.142857 0 0 0 73.142857-3.657143l658.285714-438.857143A73.142857 73.142857 0 0 0 914.285714 384a73.142857 73.142857 0 0 0-32.914285-60.708571l-658.285715-438.857143A73.142857 73.142857 0 0 0 182.857143-128zM256 686.08v-604.16L709.485714 384z"  horiz-adv-x="1024" />

    
    <glyph glyph-name="shouye1" unicode="&#59033;" d="M1073.881601 508.315893a54.70156 54.70156 0 0 0-27.35078 6.837695l-462.364933 268.037642a44.650148 44.650148 0 0 1-44.171509 0L77.561069 515.495472A53.812659 53.812659 0 0 0 6.859303 530.538401c-14.222406 21.470362-5.401779 49.504911 17.914761 63.043548l510.092044 295.183291a55.316952 55.316952 0 0 0 54.701559 0l510.228798-295.320045c23.111409-13.67539 31.863658-41.02617 17.914761-62.564909a51.898105 51.898105 0 0 0-43.829625-22.564393zM848.306045-128H275.9226a129.916204 129.916204 0 0 0-129.916204 129.916204V458.332343a47.863865 47.863865 0 1 0 95.727729 0v-456.142631a34.188475 34.188475 0 0 1 34.188475-34.188475h572.383445a34.188475 34.188475 0 0 1 34.188474 34.188475V458.332343a47.863865 47.863865 0 1 0 95.72773 0v-456.142631a129.916204 129.916204 0 0 0-129.916204-130.189712zM355.171484 435.97308m47.863865 0l0 0q47.863865 0 47.863865-47.863865l0-59.351192q0-47.863865-47.863865-47.863865l0 0q-47.863865 0-47.863865 47.863865l0 59.351192q0 47.863865 47.863865 47.863865ZM673.329431 435.97308m47.863864 0l0 0q47.863865 0 47.863865-47.863865l0-59.351192q0-47.863865-47.863865-47.863865l0 0q-47.863865 0-47.863864 47.863865l0 59.351192q0 47.863865 47.863864 47.863865ZM562.080134 68.58373c-79.727523 0-142.155678 51.419466-142.155678 116.924584a41.02617 41.02617 0 1 0 82.052339 0c0-16.410468 25.709733-34.872244 60.103339-34.872245s60.171716 18.461776 60.171715 34.872245a41.02617 41.02617 0 0 0 82.05234 0c0-65.641872-62.428155-116.924584-142.224055-116.924584z"  horiz-adv-x="1124" />

    
    <glyph glyph-name="shezhi" unicode="&#59170;" d="M510.2 564c-97.6 0-174-78.5-174-178.6 0-100.2 76.4-178.6 174-178.6 95.9 0 174 80.1 174 178.6 0 98.4-78.1 178.6-174 178.6z m0-281.4c-56.1 0-100.1 45.1-100.1 102.8 0 57.6 44 102.8 100.1 102.8 56.1 0 100.1-45.2 100.1-102.8 0-57.7-43.9-102.8-100.1-102.8z m439.7 190c-4.8 32.7-26.7 57.3-57.7 64.3l-5.2 0.8c-23.2 6.1-39.3 19.4-53.4 44.1-12.9 22.1-16.1 48.4-9.5 68 12.6 30.1 3.9 65.5-20.3 86.7-41.6 40.4-90.9 70.9-144 89.7-28.1 12.4-59.4 4.8-83.7-20.1l-2.9-3.4c-25-32.7-81.7-43-128.9 5.4-12.8 13.1-40.4 33.1-83.6 18.1-55-23.9-101-52.1-138.3-84.4-26.8-19.6-38-54.8-27.6-86.1 6.9-28.1 4-53.9-8.4-76.7-10.4-18.6-30.9-34.1-55.3-41.7-7.8-1.3-13.6-4.5-18-8-16.8-10-29.4-25.3-38.3-46.6l-3-9.2v-4.1c-5.3-28.6-7.8-56.1-7.8-86.1 0-23.6 1.5-57.7 8.5-87.6 4.9-32.6 26.8-57 57.7-64l5.2-0.8c23.2-6.1 39.2-19.3 53.4-44 12.9-22.1 16.1-48.4 9.5-68.1-12.6-30.1-3.9-65.5 20.3-86.7 42-40.9 92.1-71.4 148.8-90.8l5.7-2h0.2c3.5-1 8.1-2 13.6-2h5.9c20.9 0 41.9 9.2 59.5 27.5 28.3 34.3 83.9 42.7 129.8-4.3 15.8-16.2 34.8-25.2 53.5-25.2 6.5 0 18.4 0 28.1 5 54.1 23.5 99.5 51.2 138.6 84.5 26.1 17.7 37.8 54.3 27.3 86.1-6.9 28.1-4 53.9 8.4 76.6 10.4 18.7 30.9 34.1 55.3 41.7 7.9 1.2 13.6 4.5 18.1 8.1 16.8 10 29.3 25.2 38.2 46.5l3 9.2v4.1c5.3 28.6 7.8 56.2 7.7 89.2-2.1 28.5-4.2 57.9-10.4 86.3z m-70.4-163.1c-2.8-5.2-4.9-6.2-6-6.8l-0.7-0.4c-43.1-13.2-79-41.1-99.2-77.2-22.2-40.5-27.5-87.1-15.3-134.8l0.6-3.5-2.4-2.1c-32.7-28.3-71.1-52-119.1-73.4-0.8 0.5-1.9 1.4-3.3 2.8-35.3 36.2-76.1 55.3-118.2 55.3-47.3 0-91.1-20.3-118.1-53.3-2.8-2.9-5.2-3-5.2-3l-6.3 2h-1.2c-44.2 15.9-83.1 40.2-115.9 72l-2.3 4.1c14.8 43 9.2 93.3-14.7 134.3-25 43.6-59.1 69.8-104.1 80.1l-2.9 0.4 0.3 1.4-0.8 4.5c-4.3 17.8-6.7 43.1-6.7 71.2 0 26.2 2.1 49 6.9 73.9 2.7 5.1 4.9 6.2 6 6.8l0.6 0.4c43.1 13.2 79.1 41.1 99.2 77.2 22.2 40.5 27.5 87.1 14.2 137.8l2.8 2.5c33.8 29.3 73.6 53.6 119.1 73.5 2.6 0.9 3.6 0.9 5.3-0.9 35.3-36.2 76.1-55.3 118.2-55.3 49 0 91.3 19.3 119.3 54.4 1.9 1.8 3.4 2.4 3.7 1.9 45.6-16.2 85.9-41.1 119.9-74.1l2.3-4.1c-14.8-43-9.2-93.3 14.7-134.3 25-43.6 59-69.8 104.1-80.1l2.4-0.4c0.1-0.3 0.2-0.8 0.3-1.5l0.7-3.8c5.2-23.1 7-48.9 8.8-73.9-0.1-25.9-2.2-48.8-7-73.6z"  horiz-adv-x="1024" />

    
    <glyph glyph-name="kanguo" unicode="&#58981;" d="M1016.7 409.7c-56.9 92.1-258.4 331-504.6 331S64.4 501.8 7.5 409.7c-9.8-15.9-9.8-35.7 0-51.6 56.8-92 258.3-330.9 504.6-330.9s447.7 238.9 504.6 331c9.7 15.8 9.7 35.6 0 51.5zM512.1 92.6c-231.8 0-409.7 242.4-443.2 291.3 33.5 49 211.5 291.3 443.2 291.3s409.7-242.4 443.2-291.3c-33.6-49-211.5-291.3-443.2-291.3zM512.1 607.8c-123.4 0-223.8-100.4-223.8-223.8s100.4-223.8 223.8-223.8S735.9 260.6 735.9 384 635.5 607.8 512.1 607.8z m0-382.3c-87.3 0-158.4 71-158.4 158.4s71.1 158.4 158.4 158.4c87.3 0 158.4-71.1 158.4-158.4s-71.1-158.4-158.4-158.4z"  horiz-adv-x="1024" />

    
    <glyph glyph-name="icon_website_huabanfuben" unicode="&#59093;" d="M223.872 506.88a179.2 179.2 0 0 1 48-122.112l8.192 7.68a168.064 168.064 0 0 0 214.912 255.104l6.144 9.344A179.2 179.2 0 0 1 223.872 506.88zM921.6 75.136L645.76 350.976a286.976 286.976 0 1 1-97.664-93.952l277.632-277.632z m-95.872-80L652.8 168.448l80 79.872 172.928-173.184zM207.36 310.144a276.736 276.736 0 1 0 195.712-81.024 274.944 274.944 0 0 0-195.712 81.024z m399.232-7.936A299.008 299.008 0 0 1 640 341.504L724.608 256l-80-80-86.656 86.784a300.544 300.544 0 0 1 48.64 39.424z"  horiz-adv-x="1024" />

    
    <glyph glyph-name="QQ" unicode="&#59510;" d="M666.122449-13.061224c-10.44898 0-21.420408 1.044898-31.869388 2.612244-39.183673 4.702041-74.710204 23.510204-100.832653 53.289796-13.583673-5.22449-28.212245-5.22449-41.795918 0-21.420408-28.212245-61.64898-48.065306-108.669388-53.289796-66.35102-7.314286-138.44898 11.493878-144.718367 55.379592-5.22449 34.481633 37.093878 61.126531 81.502041 75.755102-25.6 28.212245-43.363265 63.738776-51.2 101.355102l-0.522449-0.522449c-25.077551-31.346939-41.795918-50.155102-61.126531-50.155102-2.089796 0-4.179592 0.522449-6.269388 1.044898-7.314286 2.612245-13.061224 8.881633-17.240816 18.808164-16.195918 34.481633-9.404082 100.310204 15.15102 150.465306 0 0 0 0.522449 0.522449 0.522449 12.538776 22.465306 27.689796 43.363265 45.453061 62.171428-6.269388 11.493878-10.44898 24.032653-12.016326 37.093878v3.134694c0.522449 19.330612 10.44898 37.093878 26.644898 47.542857-10.971429 73.142857 9.926531 147.330612 58.514286 203.232653 49.110204 56.946939 120.163265 88.816327 194.873469 86.204081h4.702041c65.306122 0 129.567347-26.122449 177.110204-72.097959 49.110204-47.542857 76.8-112.326531 77.844898-180.767347v-7.314285c0.522449-9.926531 0-19.330612-1.044898-29.257143 14.106122-8.881633 21.420408-20.37551 21.420408-48.065306 0-13.583673-1.044898-27.689796-9.926531-36.04898 13.061224-17.763265 28.734694-42.840816 41.27347-62.693877l2.612245-4.179592c20.37551-32.391837 23.510204-74.187755 22.987755-96.130613 0-17.240816-2.089796-58.514286-18.285714-70.530612-3.657143-2.612245-7.314286-3.657143-12.016327-3.657143h-4.179592c-26.122449 0-41.273469 23.510204-57.991837 48.587755l-1.567347 2.089796c-8.881633-36.571429-26.122449-71.053061-50.677551-99.265306 27.167347-9.404082 83.069388-31.346939 75.755103-73.142857-5.746939-35.526531-55.902041-62.171429-114.416327-62.171428z m-388.702041 63.738775z m250.253061 11.493878z m276.375511 140.016326z m-47.020409 235.102041z"  horiz-adv-x="1024" />

    
    <glyph glyph-name="tubiao_chakangongyi" unicode="&#58925;" d="M553.08144-108.282508c-19.201662 0-31.122727 0.062979-32.286343 0.068977H112.234954c-16.676495 0-30.243017 13.566522-30.243018 30.242018V851.563667c0 16.675496 13.566522 30.242018 30.243018 30.242018h777.545349c16.676495 0 30.243017-13.567522 30.243017-30.242018v-592.066571c0-11.041355-8.951045-19.993401-19.9934-19.993401s-19.993401 8.952045-19.993401 19.993401V841.818884H121.978737v-910.045614h398.962312c0.669779-0.002999 68.005553-0.380874 149.164764 0.670779l0.263913 0.000999c10.923394 0 19.845449-8.781102 19.986403-19.734486 0.144952-11.041355-8.691131-20.107363-19.732487-20.250315-47.297388-0.612798-89.939313-0.742755-117.542202-0.742755zM936.93074-116.726721c-6.310917 0-12.517868 2.979017-16.406585 8.54318l-50.663277 72.506067c-6.323913 9.052012-4.113642 21.515898 4.93737 27.840811 9.051012 6.323913 21.516898 4.112643 27.840811-4.937371l50.663277-72.506067c6.323913-9.052012 4.113642-21.515898-4.937371-27.84081a19.90343 19.90343 0 0 0-11.434225-3.60581zM753.077426 619.1533810000001H248.936831c-11.042355 0-19.993401 8.951045-19.9934 19.993401s8.951045 19.993401 19.9934 19.9934h504.141594c11.042355 0 19.993401-8.951045 19.993401-19.9934s-8.952045-19.993401-19.9944-19.993401zM576.564689 147.70899399999996H248.936831c-11.042355 0-19.993401 8.951045-19.9934 19.993401s8.951045 19.993401 19.9934 19.993401h327.627858c11.042355 0 19.993401-8.951045 19.9934-19.993401s-8.951045-19.993401-19.9934-19.993401zM753.077426 383.432187H248.936831c-11.042355 0-19.993401 8.951045-19.9934 19.993401s8.951045 19.993401 19.9934 19.993401h504.141594c11.042355 0 19.993401-8.951045 19.993401-19.993401s-8.952045-19.993401-19.9944-19.993401zM782.334768-83.47769600000004c-96.300213 0-174.645353 78.34614-174.645353 174.645354s78.34514 174.645353 174.645353 174.645353c96.299214 0 174.644354-78.34614 174.644354-174.645353s-78.34514-174.645353-174.644354-174.645354z m0 309.303906c-74.250492 0-134.658552-60.408061-134.658552-134.658552s60.408061-134.658552 134.658552-134.658553 134.657552 60.408061 134.657553 134.658553-60.407061 134.658552-134.657553 134.658552zM855.426642 113.354334c-6.904721 0-13.619504 3.579818-17.325281 9.986704a65.073521 65.073521 0 0 1-19.791467 21.213998c-10.63449 7.184629-23.074384 10.982375-35.975126 10.982375-11.042355 0-19.993401 8.951045-19.9934 19.9934s8.951045 19.993401 19.9934 19.993401c20.910098 0 41.090437-6.166964 58.360737-17.835113 13.061689-8.824087 24.135034-20.694169 32.019431-34.327669 5.528175-9.558845 2.263253-21.788808-7.296592-27.316984a19.896433 19.896433 0 0 0-9.991702-2.690112z"  horiz-adv-x="1024" />

    
    <glyph glyph-name="ziyuan1" unicode="&#58942;" d="M316.629323 893.090704c-47.817154 0-125.605825-50.562636-198.361112-126.749776-65.66279-68.637063-122.173972-154.662181-118.055748-208.885461a51.020217 51.020217 0 0 1 15.100154-33.403371 29.285147 29.285147 0 0 1 5.033385-3.889433 248.466167 248.466167 0 0 1 142.07872-51.020217L293.521512 298.23616000000004a375.444733 375.444733 0 0 1 55.824811-263.795111 68.637063 68.637063 0 0 1 68.637062-29.971518 564.425446 564.425446 0 0 1 292.622678 140.477189l326.941209-265.625433 1.601531 1.372741-274.548251 318.247181a562.595124 562.595124 0 0 1 129.495259 297.427272v9.609189a68.637063 68.637063 0 0 1-33.403371 57.883923 375.902314 375.902314 0 0 1-200.191433 53.079328 345.244426 345.244426 0 0 1-66.349161-7.778867l-175.71088 122.631552A256.473825 256.473825 0 0 1 357.58277 877.304179s0 1.830322-1.601531 2.516693A52.850538 52.850538 0 0 1 316.629323 893.090704z m519.353775-368.809818a22.879021 22.879021 0 0 0 10.295559-21.735069A521.641677 521.641677 0 0 0 412.03484 49.998783a22.879021 22.879021 0 0 0-22.879021 9.380398 327.85637 327.85637 0 0 0-48.961105 228.79021 326.941209 326.941209 0 0 1 264.939063 276.607362 323.280566 323.280566 0 0 0 230.849321-40.495867z m-274.548251 51.706588a281.640748 281.640748 0 0 0-235.653916-243.203993L219.851064 472.803089a246.407055 246.407055 0 0 1 196.53079 204.080867z m-187.607972 142.07872a199.962643 199.962643 0 0 0-195.844419-203.394496h-2.059112a195.386839 195.386839 0 0 0-68.637063 11.43951A522.099257 522.099257 0 0 1 251.881693 637.9896200000001a531.937236 531.937236 0 0 1 105.243497 150.772748 191.954986 191.954986 0 0 0 15.786524-70.696174zM322.577868 847.332662c7.778867-10.75314-13.041042-81.449314-104.099545-176.626042s-160.153146-118.513328-170.448706-111.649622a15.100154 15.100154 0 0 0-2.059112 5.490965c0 21.50628 24.938133 86.482699 105.472287 170.677496 90.829713 94.490356 160.153146 118.284538 171.135076 112.107203zM1039.148803-119.305972l7.321287-8.694028-8.922818 7.321287zM797.088762 470.972768a375.444733 375.444733 0 0 0-52.392958-140.248399 9.380399 9.380399 0 0 0 0-2.059111l-1.830322-2.974273a22.879021 22.879021 0 0 0-18.532006-8.694028 22.879021 22.879021 0 0 0-6.863707 1.372741 18.532007 18.532007 0 0 0-8.465238 5.033385 22.879021 22.879021 0 0 0-7.321286 17.159265 22.879021 22.879021 0 0 0 2.059112 8.922819 9.380399 9.380399 0 0 0 1.143951 2.059112 7.778867 7.778867 0 0 1 1.372741 2.745482 326.026048 326.026048 0 0 1 45.758042 123.546713 22.879021 22.879021 0 0 0 27.912405 18.989587 22.879021 22.879021 0 0 0 17.159266-25.853293z"  horiz-adv-x="1049" />

    
    <glyph glyph-name="xinbaniconshangchuan-" unicode="&#58910;" d="M646.4 693.333333c-25.6 19.2-55.466667 23.466667-85.333333 12.8l-251.733334-125.866666c-19.2-6.4-34.133333-19.2-44.8-34.133334-12.8 4.266667-27.733333 8.533333-49.066666 8.533334H187.733333c-49.066667 0-87.466667-40.533333-87.466666-91.733334v-217.6c0-51.2 38.4-91.733333 87.466666-91.733333h27.733334c21.333333 0 36.266667 2.133333 49.066666 8.533333 10.666667-14.933333 25.6-25.6 42.666667-32L554.666667 14.933333h2.133333c10.666667-4.266667 23.466667-6.4 34.133333-6.4 19.2 0 38.4 6.4 53.333334 17.066667 29.866667 21.333333 46.933333 55.466667 46.933333 96V599.466667c2.133333 38.4-14.933333 74.666667-44.8 93.866666z m-405.333333-467.2v-4.266666c-2.133333 0-8.533333-2.133333-23.466667-2.133334H187.733333c-12.8 0-23.466667 12.8-23.466666 27.733334V465.066667c0 14.933333 10.666667 27.733333 23.466666 27.733333h27.733334c17.066667 0 23.466667-2.133333 23.466666-2.133333V236.8c2.133333-4.266667 2.133333-6.4 2.133334-10.666667z m388.266666-106.666666c0-17.066667-8.533333-34.133333-19.2-42.666667-6.4-4.266667-14.933333-8.533333-27.733333-4.266667l-247.466667 117.333334h-2.133333c-17.066667 6.4-27.733333 25.6-27.733333 46.933333V475.733333c0 21.333333 12.8 40.533333 27.733333 46.933334l251.733333 125.866666c10.666667 2.133333 19.2-2.133333 25.6-4.266666 12.8-8.533333 19.2-23.466667 19.2-42.666667v-482.133333zM776.533333 520.533333c6.4-4.266667 12.8-6.4 19.2-6.4 10.666667 0 19.2 4.266667 25.6 12.8l81.066667 110.933334c10.666667 14.933333 6.4 34.133333-6.4 44.8-14.933333 10.666667-34.133333 6.4-44.8-6.4L768 565.333333c-8.533333-14.933333-6.4-34.133333 8.533333-44.8zM821.333333 162.133333c-10.666667 14.933333-29.866667 17.066667-44.8 6.4-14.933333-10.666667-17.066667-29.866667-6.4-44.8l81.066667-110.933333c6.4-8.533333 14.933333-12.8 25.6-12.8 6.4 0 12.8 2.133333 19.2 6.4 14.933333 10.666667 17.066667 29.866667 6.4 44.8l-81.066667 110.933333zM891.733333 381.866667H789.333333c-17.066667 0-32-14.933333-32-32s14.933333-32 32-32h102.4c17.066667 0 32 14.933333 32 32s-12.8 32-32 32z"  horiz-adv-x="1024" />

    
    <glyph glyph-name="pinglun" unicode="&#58660;" d="M586.4 115H437.2c-20.6 0-37.3 16.7-37.3 37.3s16.7 37.3 37.3 37.3h149.2c164.5 0 298.4 125.4 298.4 279.7C884.8 623.5 751 749 586.4 749H437.2c-164.5 0-298.4-125.5-298.4-279.7 0-52.2 15.5-103.1 44.7-147.2 11.4-17.2 6.6-40.3-10.5-51.7-17.3-11.4-40.4-6.7-51.7 10.5-37.3 56.4-57 121.5-57 188.4 0 195.3 167.3 354.3 373 354.3h149.2c205.6 0 373-159 373-354.3C959.3 273.9 792 115 586.4 115M213.5-56.1c-9.6 0-19.4 1.9-28.6 5.7-28 11.6-46 38.6-46 68.9 0 3.4 0.5 6.8 1.4 10l37.3 133.7c5.6 19.9 26.2 31.5 45.9 25.9 19.9-5.5 31.4-26.1 25.9-45.9l-34-121.9c0.3 0.3 0.6 0.5 0.9 0.8l197.4 160.1c6.6 5.4 14.9 8.3 23.5 8.3h37.3c20.6 0 37.3-16.7 37.3-37.3s-16.7-37.3-37.3-37.3h-24.1L264.6-35.8c-14.2-13.3-32.5-20.3-51.1-20.3M549.1 450.6c0-20.6-16.7-37.3-37.3-37.3-20.6 0-37.3 16.7-37.3 37.3 0 20.6 16.7 37.3 37.3 37.3 20.6 0 37.3-16.7 37.3-37.3M735.6 450.6c0-20.6-16.7-37.3-37.3-37.3S661 430 661 450.6c0 20.6 16.7 37.3 37.3 37.3 20.5 0 37.3-16.7 37.3-37.3M362.6 450.6c0-20.6-16.7-37.3-37.3-37.3-20.6 0-37.3 16.7-37.3 37.3 0 20.6 16.7 37.3 37.3 37.3s37.3-16.7 37.3-37.3"  horiz-adv-x="1024" />

    
    <glyph glyph-name="vuejs-line" unicode="&#59260;" d="M141.482667 768L512 128l370.517333 640H981.333333L512-42.666667 42.666667 768h98.816z m185.258666 0L512 448 697.258667 768h98.816L512 277.333333 227.925333 768h98.816z"  horiz-adv-x="1024" />

    
    <glyph glyph-name="bi" unicode="&#59202;" d="M904 16c13.2544 0 24-10.7456 24-24 0-13.2544-10.7456-24-24-24H120c-13.2544 0-24 10.7456-24 24 0 13.2544 10.7456 24 24 24h784zM769.1152 748.3152c46.864-46.864 46.864-122.8432 0-169.7056L376.2384 185.7328a152 152 0 0 0-59.4128-36.72L202.56 110.9264c-29.3408-9.7792-61.0544 6.0768-70.8352 35.4176a56 56 0 0 0 0 35.4176l38.0896 114.2656a152 152 0 0 0 36.72 59.4128L599.408 748.3152c46.864 46.864 122.8432 46.864 169.7056 0zM245.7168 326.7424l-5.2416-5.2448a104 104 0 0 1-25.1248-40.6512l-38.088-114.264a8 8 0 0 1 10.12-10.12l114.264 38.088a104 104 0 0 1 40.6512 25.1248l5.2416 5.2432-101.8224 101.824z m356 355.9984L279.6576 360.6832l101.824-101.824 322.0576 322.0592-101.8224 101.8224z m33.9936 33.8896l101.72-101.72c25.84 28.2528 25.088 72.12-2.256 99.464-27.344 27.344-71.2112 28.096-99.464 2.256z"  horiz-adv-x="1024" />

    
    <glyph glyph-name="node-js" unicode="&#58703;" d="M512-120c-13.4 0-27 3.6-38.8 10.4l-123.4 73c-18.4 10.4-9.4 14-3.4 16 24.6 8.6 29.6 10.4 55.8 25.4 2.8 1.6 6.4 1 9.2-0.8l94.8-56.2c3.4-2 8.2-2 11.4 0l369.4 213.2c3.4 2 5.6 6 5.6 10V597.4c0 4.2-2.2 8-5.8 10.2L517.6 820.6c-3.4 2-8 2-11.4 0L137.2 607.4c-3.6-2-5.8-6-5.8-10.2v-426.2c0-4 2.2-8 5.8-9.8l101.2-58.4c55-27.4 88.6 4.8 88.6 37.4V561c0 6 4.8 10.6 10.8 10.6h46.8c5.8 0 10.8-4.6 10.8-10.6V140c0-73.2-40-115.2-109.4-115.2-21.4 0-38.2 0-85 23.2l-96.8 55.8C80.2 117.6 65.4 143.4 65.4 171.2V597.4c0 27.6 14.8 53.6 38.8 67.4L473.2 878c23.4 13.2 54.4 13.2 77.6 0l369.4-213.4c24-13.8 38.8-39.6 38.8-67.4v-426.2c0-27.6-14.8-53.4-38.8-67.4L550.8-109.6c-11.8-6.8-25.2-10.4-38.8-10.4z m298.2 420.2c0 79.8-54 101-167.4 116-114.8 15.2-126.4 23-126.4 49.8 0 22.2 9.8 51.8 94.8 51.8 75.8 0 103.8-16.4 115.4-67.6 1-4.8 5.4-8.4 10.4-8.4h48c3 0 5.8 1.2 7.8 3.4s3 5.2 2.8 8.2c-7.4 88.2-66 129.2-184.4 129.2-105.4 0-168.2-44.4-168.2-119 0-80.8 62.6-103.2 163.6-113.2 121-11.8 130.4-29.6 130.4-53.4 0-41.2-33.2-58.8-111-58.8-97.8 0-119.2 24.6-126.4 73.2-0.8 5.2-5.2 9-10.6 9h-47.8c-6 0-10.6-4.8-10.6-10.6 0-62.2 33.8-136.4 195.6-136.4 116.8 0.2 184 46.4 184 126.8z"  horiz-adv-x="1024" />

    
    <glyph glyph-name="jishu" unicode="&#59100;" d="M269.695 881.225c12.58 10.484 29.257 14.629 45.3 13.653 20.968-1.267 40.96-9.07 59.49-18.675 30.866-16.238 58.514-38.083 84.602-61.392 29.744-26.819 57.1-56.368 83.041-86.99a860.794 860.794 0 0 0 90.21 93.427C659.595 844.8 688.56 866.84 721.279 881.859c19.651 8.777 41.253 15.263 62.903 12.434 16.628-2.096 32.183-11.605 41.935-25.55 13.166-18.53 18.042-41.497 20.285-63.879 2.829-33.207-0.487-66.658-5.949-99.474-13.165-75.24-38.034-147.846-67.389-217.966 47.446-8.29 94.599-19.505 140.142-35.499 31.988-11.41 63.488-25.112 91.868-44.275 16.432-11.264 32.036-24.528 43.056-41.497 8.192-12.63 13.166-27.843 11.85-43.154-1.073-14.629-7.656-28.185-16.238-39.692a269.8 269.8 0 0 1-32.183 33.304c3.608 5.998 4.876 13.75 1.17 20.09-7.802 14.629-21.455 24.771-34.718 33.89-32.33 20.967-68.51 34.62-104.936 46.03a872.497 872.497 0 0 1-119.32 27.21c-4.145-9.167-8.485-18.286-12.873-27.307 7.558-16.238 15.31-32.426 22.43-48.81a262.827 262.827 0 0 1-41.594-17.701c-2.292 5.12-4.681 10.191-6.827 15.311-4.096-8.094-8.63-15.994-12.873-23.99-1.267-2.097-2.194-4.584-4.388-5.9a266.728 266.728 0 0 1-78.117-82.799 273.213 273.213 0 0 1-36.376-103.326l-5.462-0.146a114.618 114.618 0 0 1-6.339-8.192c3.219-3.95 6.632-7.802 9.85-11.752a278.43 278.43 0 0 1 5.462-74.07c-15.312 16.092-30.233 32.671-44.52 49.738a871.863 871.863 0 0 0-90.55-93.72c-26.966-23.357-55.687-45.105-88.016-60.075-19.359-8.729-40.521-15.214-61.928-12.922a60.611 60.611 0 0 0-40.277 21.601c-12.532 15.068-18.578 34.524-21.748 53.736-4.437 28.282-3.17 57.198 0.098 85.577 2.925 25.6 8.045 50.81 13.8 75.874-48.08 9.85-95.623 23.162-140.923 42.52-29.94 13.166-59.49 28.867-83.382 51.932-14.044 13.702-26.04 31.158-28.429 51.346-2.145 17.115 3.804 34.377 13.556 48.177 13.166 18.87 31.695 33.011 50.859 45.007 31.793 19.505 66.56 33.255 101.815 44.568a954.124 954.124 0 0 0 142.677 32.524 1205.2 1205.2 0 0 0-42.179 116.054c-14.726 49.054-26.575 99.474-30.037 150.82-1.463 24.918-0.976 50.225 4.876 74.606 4.486 18.334 12.678 36.669 27.355 48.713m29.696-35.01c-6.339-4.39-9.41-12.094-11.703-19.262-6.144-20.577-6.339-42.423-5.363-63.78 2.828-45.983 13.263-91.185 26.038-135.217 13.069-44.471 29.404-87.87 47.592-130.438 10.435 1.024 20.87 2.096 31.305 3.316 10.24 17.261 19.993 34.864 30.476 51.931a1496.113 1496.113 0 0 0 95.086 138.874c-18.286 22.43-37.79 43.886-58.173 64.414a526.824 526.824 0 0 1-76.068 64.122c-16.97 11.215-34.914 21.602-54.614 26.82-7.997 1.657-17.066 3.51-24.576-0.78m460.313 0.584c-19.213-5.12-36.718-15.165-53.346-26.087a448.95 448.95 0 0 1-50.859-40.083 827.1 827.1 0 0 1-84.163-88.99 1534.39 1534.39 0 0 0 125.952-191.83c0.488-1.365 1.805-1.999 3.219-1.95 8.777-0.975 17.554-2.145 26.331-3.316 15.994 36.474 30.184 73.777 42.423 111.763 14.775 46.908 26.965 94.939 31.695 144.091 1.95 24.576 2.73 49.835-3.56 73.825-2.437 8.046-5.363 16.823-12.385 21.846-7.704 4.535-17.067 2.535-25.307 0.731M541.982 654.775a1519.811 1519.811 0 0 1-100.01-149.943 1562.673 1562.673 0 0 0 201.093-1.56 1427.163 1427.163 0 0 1-101.083 151.503m-105.277-196.51c-7.266-0.683-14.775-0.39-21.797-1.902-7.363-13.069-14.092-26.576-21.016-39.936a1550.58 1550.58 0 0 1 135.46-221.72c8.534-0.05 17.067 0 25.552 0.194a1548.142 1548.142 0 0 1 135.168 221.282c-6.144 13.068-13.069 25.844-19.895 38.522a1519.567 1519.567 0 0 1-233.472 3.56M178.657 413.89c-28.77-9.313-57.052-20.48-83.48-35.499-13.8-7.997-27.161-17.066-38.23-28.818-4.779-5.315-9.411-11.215-11.166-18.383-1.366-6.047 1.462-11.996 4.73-16.823 6.729-9.85 15.945-17.603 25.356-24.576 15.262-10.971 31.89-19.749 48.908-27.404 45.056-19.993 92.794-33.06 140.824-42.96 20.139 67.877 47.202 133.462 77.727 197.047-5.071 10.24-9.753 20.578-14.629 30.867-50.712-7.363-101.132-17.798-150.04-33.451m131.657-202.654c53.736-8.534 108.008-13.459 162.328-15.604A1602.901 1602.901 0 0 0 369.365 365.08a1177.307 1177.307 0 0 1-59.051-153.843m-12.337-44.715a609.524 609.524 0 0 1-13.653-73.29c-2.438-21.6-3.609-43.544-1.22-65.194 1.317-10.63 3.317-21.309 7.851-31.012 2.634-5.364 6.535-10.972 12.679-12.386 7.119-1.707 14.53-0.293 21.504 1.414 19.114 5.315 36.571 15.311 53.15 26.234 18.822 12.678 36.425 27.063 53.297 42.374a851.578 851.578 0 0 1 81.237 86.309c-2.682 2.633-4.047 8.192-8.484 7.704a1426.578 1426.578 0 0 0-206.36 17.847zM752.39 325.486a222.988 222.988 0 0 0 236.202-35.206 234.057 234.057 0 0 0 76.751-131.609c-16.774 8.095-34.036 15.555-52.272 19.261a187.44 187.44 0 0 1-50.957 74.606 178.859 178.859 0 0 1-112.737 45.69 177.981 177.981 0 0 1-110.3-33.012 186.856 186.856 0 0 1-69.485-95.183 190.854 190.854 0 0 1 2.34-123.368c8.631-23.65 21.992-45.495 39.107-63.732-3.9-18.773-5.51-38.034-5.071-57.149a232.74 232.74 0 0 0-67.681 84.017 238.056 238.056 0 0 0 16.969 233.765 229.912 229.912 0 0 0 97.133 81.92zM915.498 178.225a22.235 22.235 0 0 0 37.352-9.07 23.6 23.6 0 0 0-5.56-23.698c-37.156-38.132-74.41-76.215-111.615-114.298a22.187 22.187 0 0 0-31.988 0.341c-26.478 27.55-53.346 54.614-79.92 82.066a23.552 23.552 0 0 0-4.926 23.455 22.723 22.723 0 0 0 17.75 15.262c7.07 1.22 14.628-1.365 19.602-6.631l63.732-65.292 95.573 97.816zM1013.07 177.932c18.237-3.706 35.5-11.215 52.273-19.26a238.885 238.885 0 0 0-16.14-144.19 231.765 231.765 0 0 0-84.65-99.181 222.16 222.16 0 0 0-132-36.084 223.183 223.183 0 0 0-126.585 46.567 254.44 254.44 0 0 0 5.071 57.15 179.883 179.883 0 0 1 119.32-57.345c45.593-3.413 92.16 11.85 127.416 41.643a187.782 187.782 0 0 1 60.416 94.452 191.537 191.537 0 0 1-5.12 116.248z"  horiz-adv-x="1073" />

    
    <glyph glyph-name="wode" unicode="&#58966;" d="M768.53 472.746c-5.705-70.988-44.085-135.69-101.495-179.6l0.021-18.542c119.89-20.822 210.16-69.202 268.25-143.774a123.118 123.118 0 0 0 25.889-75.233v-21.078c0-47.442-38.876-86.06-86.666-86.06H152.202c-47.79 0-86.666 38.618-86.666 86.06v21.078c0 27.11 9.191 53.835 25.889 75.254 58.111 74.573 148.38 122.952 268.27 143.774l-0.02 18.542c-57.365 43.926-95.198 108.602-100.823 179.579H768.53zM385.969 822.272l255.348-0.469c70.615-0.07 127.823-57.301 127.823-127.875 0.128-40.558 0.128-81.094 0.128-121.652l-0.001-12.148H258.123V694.397a127.687 127.687 0 0 0 37.396 90.427 127.84 127.84 0 0 0 90.45 37.448z m204.193-109.227H458.96c-24.13 0-43.69-19.56-43.69-43.69s19.56-43.691 43.69-43.691h131.202c24.13 0 43.69 19.561 43.69 43.69 0 24.13-19.56 43.691-43.69 43.691z"  horiz-adv-x="1024" />

    
    <glyph glyph-name="js" unicode="&#58894;" d="M819.2 140.544H641.570133c-14.4384 0-26.112-12.475733-26.112-27.869867v-168.618666h28.433067L819.2 135.560533v4.983467zM819.2 196.266667v88.183466c0 15.189333 11.4688 27.477333 25.6 27.477334s25.6-12.288 25.6-27.477334v-160.136533c0-7.2192-2.645333-14.1312-7.338667-19.285333L672.887467-102.7072a24.746667 24.746667 0 0 0-18.261334-8.226133H271.36C206.336-110.933333 153.6-54.306133 153.6 15.547733V752.469333C153.6 822.306133 206.336 878.933333 271.36 878.933333h481.28C817.664 878.933333 870.4 822.306133 870.4 752.452267v-48.930134c0-15.189333-11.4688-27.477333-25.6-27.477333s-25.6 12.288-25.6 27.477333V752.469333c0 39.4752-29.7984 71.492267-66.56 71.492267H271.36c-36.7616 0-66.56-32.017067-66.56-71.509333v-736.887467c0-39.4752 29.7984-71.492267 66.56-71.492267H563.2v168.618667C563.2 158.839467 598.289067 196.266667 641.570133 196.266667H819.2zM449.826133 617.6768h43.9296l-20.650666-181.3504c-3.498667-30.788267-12.458667-53.316267-26.9312-68.334933-16.059733-15.7696-39.492267-23.6544-70.656-23.6544-27.0336 0-46.813867 7.509333-58.999467 22.528-12.561067 15.018667-17.339733 35.669333-14.353067 61.952l0.989867 8.635733h43.9296l-0.938667-8.260267c-3.515733-30.788267 7.867733-46.1824 34.525867-46.1824 14.6432 0 26.043733 4.5056 33.792 13.141334 7.748267 8.635733 12.6976 22.528 14.882133 41.6768l20.48 179.848533zM712.004267 622.933333c31.5392 0 55.6032-6.382933 71.748266-19.524266 17.186133-13.892267 25.6-35.669333 24.900267-64.955734H765.098667c-1.877333 16.520533-7.645867 28.535467-16.5888 35.669334-8.9088 7.509333-23.552 10.888533-43.076267 10.888533-16.896 0-29.917867-2.2528-39.4752-7.133867-11.912533-5.632-18.244267-15.018667-19.694933-27.784533-1.28-11.264 3.669333-20.650667 15.650133-27.409067 5.290667-3.003733 20.053333-8.635733 43.9296-16.520533 35.157333-11.264 57.3952-20.2752 67.2256-26.282667 21.691733-13.892267 31.146667-33.041067 28.330667-57.821866-2.730667-24.029867-14.301867-43.178667-34.645334-57.070934-20.309333-13.5168-47.786667-20.650667-81.954133-20.650666-33.041067 0-58.231467 6.382933-75.178667 19.1488-20.718933 15.7696-30.293333 40.5504-28.279466 74.717866h43.554133c0.682667-20.2752 6.144-34.9184 16.810667-43.554133 9.659733-7.509333 25.344-11.639467 47.496533-11.639467 19.524267 0 35.669333 3.3792 47.6672 9.762134 12.032 6.7584 19.012267 15.394133 20.309333 26.658133 1.621333 14.267733-5.7344 25.531733-21.316266 33.792-4.949333 2.628267-21.538133 8.635733-50.176 17.646933-31.8464 10.513067-51.643733 18.0224-59.016534 22.528-19.234133 12.3904-27.323733 30.4128-24.6272 54.0672 2.696533 23.6544 14.592 42.427733 36.4032 55.944534 20.2752 13.141333 44.6464 19.524267 73.557334 19.524266z"  horiz-adv-x="1024" />

    
    <glyph glyph-name="rili1" unicode="&#58932;" d="M784.7422614 78.47962940000002H245.19393197a38.71430258 38.71430258 0 0 0-38.71430257 38.71430257v490.38116475a38.71430258 38.71430258 0 0 0 38.71430257 38.71430256h539.54832943a38.71430258 38.71430258 0 0 0 38.71430198-38.71430256v-490.38116475a38.71430258 38.71430258 0 0 0-38.71430198-38.71430257zM245.19393197 619.9636738300001a12.90476753 12.90476753 0 0 1-12.90476752-12.90476752v-490.38116533a12.90476753 12.90476753 0 0 1 12.90476752-12.90476753h539.54832943a12.90476753 12.90476753 0 0 1 12.90476753 12.90476753v490.38116533a12.90476753 12.90476753 0 0 1-12.90476753 12.90476751zM218.35201554 517.7579150199999h591.16739894v-25.80953505H218.35201554zM359.65921957 576.08746438a12.90476753 12.90476753 0 0 0-12.90476752 12.90476752V676.61560308a12.90476753 12.90476753 0 0 0 25.80953505 0v-87.62337118a12.90476753 12.90476753 0 0 0-12.90476753-12.90476752zM666.53459093 576.08746438a12.90476753 12.90476753 0 0 0-12.90476752 12.90476752V676.61560308a12.90476753 12.90476753 0 0 0 25.80953504 0v-87.62337118a12.90476753 12.90476753 0 0 0-12.90476752-12.90476752zM315.00872423 432.32835434m9.5495279 0l50.45764096 0q9.5495279 0 9.54952791-9.5495279l0-50.45764096q0-9.5495279-9.54952791-9.5495279l-50.45764096 0q-9.5495279 0-9.5495279 9.5495279l0 50.45764095q0 9.5495279 9.5495279 9.54952791ZM490.25546659 432.32835434m9.54952789 0l50.45764099 0q9.5495279 0 9.54952789-9.5495279l0-50.45764096q0-9.5495279-9.54952789-9.5495279l-50.45764099 0q-9.5495279 0-9.54952789 9.5495279l0 50.45764095q0 9.5495279 9.54952789 9.54952791ZM657.50125342 432.32835434m9.5495279 0l50.45764096 0q9.5495279 0 9.5495279-9.5495279l0-50.45764096q0-9.5495279-9.5495279-9.5495279l-50.45764096 0q-9.5495279 0-9.5495279 9.5495279l0 50.45764095q0 9.5495279 9.5495279 9.54952791ZM657.50125342 264.43732938000005m9.5495279 0l50.45764096 0q9.5495279 0 9.5495279-9.54952849l0-50.45764039q0-9.5495279-9.5495279-9.54952848l-50.45764096 0q-9.5495279 0-9.5495279 9.54952848l0 50.45764039q0 9.5495279 9.5495279 9.54952849ZM490.25546659 264.43732938000005m9.54952789 0l50.45764099 0q9.5495279 0 9.54952789-9.54952849l0-50.45764039q0-9.5495279-9.54952789-9.54952848l-50.45764099 0q-9.5495279 0-9.54952789 9.54952848l0 50.45764039q0 9.5495279 9.54952789 9.54952849ZM315.00872423 264.43732938000005m9.5495279 0l50.45764096 0q9.5495279 0 9.54952791-9.54952849l0-50.45764039q0-9.5495279-9.54952791-9.54952848l-50.45764096 0q-9.5495279 0-9.5495279 9.54952848l0 50.45764039q0 9.5495279 9.5495279 9.54952849Z"  horiz-adv-x="1033" />

    
    <glyph glyph-name="laba" unicode="&#59079;" d="M598.75 773.32a34.489 34.489 0 0 0 9.539-23.812V565.66a29.764 29.764 0 0 0 15.144-4.368c64.215-39.125 103.874-104.523 103.874-176.378 0-69.617-37.224-133.258-98.188-172.801a29.79 29.79 0 0 0-20.83-4.467v-189.154c0-19.05-15.445-34.492-34.498-34.492a34.501 34.501 0 0 0-23.816 9.538l-188.657 179.99a46.002 46.002 0 0 1-31.754 12.718H198.497c-31.755 0-57.497 25.737-57.497 57.486V524.268c0 31.749 25.742 57.486 57.497 57.486h131.067a46.002 46.002 0 0 1 31.754 12.718l188.657 179.99c13.784 13.15 35.621 12.64 48.774-1.142z m192.265-701.485c8.021 14.43 26.224 19.627 40.657 11.608l69.754-38.76 0.65-0.37c13.938-8.2 18.86-26.067 10.96-40.28-8.022-14.43-26.225-19.627-40.658-11.607l-69.753 38.758-0.65 0.372c-13.938 8.199-18.86 26.067-10.96 40.279zM608.289 499.274v-228.715c37.406 28.848 59.22 70.172 59.22 114.355 0 44.226-21.874 85.563-59.22 114.36z m287.796-78.889c16.191 0.016 29.513-12.902 29.906-29.171 0.399-16.505-12.66-30.208-29.168-30.607l-85.08-2.054-0.707-0.01c-16.19-0.015-29.512 12.903-29.905 29.172-0.4 16.505 12.66 30.208 29.167 30.607l85.082 2.054z m-3.734 345.313c7.9-14.213 2.978-32.08-10.96-40.28l-0.65-0.37-69.754-38.76c-14.433-8.02-32.636-2.822-40.657 11.608-7.9 14.212-2.978 32.08 10.96 40.28l0.65 0.37 69.753 38.76c14.434 8.02 32.637 2.822 40.658-11.608z"  horiz-adv-x="1024" />

    
    </font>
</defs>
</svg>
